<?xml version="1.0" encoding="UTF-8"?>
<svg version="1.1" xmlns="http://www.w3.org/2000/svg" width="200" height="200">
<path d="M0 0 C66 0 132 0 200 0 C200 66 200 132 200 200 C134 200 68 200 0 200 C0 134 0 68 0 0 Z " fill="#2B374B" transform="translate(0,0)"/>
<path d="M0 0 C3.29800207 1.71858135 6.51597832 3.54146652 9.734375 5.40478516 C10.92244877 6.08082886 12.11109748 6.75586306 13.30029297 7.42993164 C16.35436765 9.16621968 19.39821018 10.91961958 22.43884277 12.67932129 C24.18679524 13.68978018 25.93759858 14.69530243 27.68847656 15.70068359 C34.56939569 19.65192295 41.44783285 23.60553091 48.234375 27.71728516 C49.08225586 28.2198584 49.93013672 28.72243164 50.80371094 29.24023438 C52.00302246 29.98490967 52.00302246 29.98490967 53.2265625 30.74462891 C53.92894043 31.17380615 54.63131836 31.6029834 55.35498047 32.04516602 C58.74887257 35.06475123 60.10008297 38.55374362 60.61532593 43.01794434 C60.6189061 44.80947937 60.6189061 44.80947937 60.62255859 46.63720703 C60.63044403 47.63355919 60.63044403 47.63355919 60.63848877 48.65003967 C60.6516099 50.82894951 60.64297947 53.00711889 60.6328125 55.18603516 C60.63483552 56.71008442 60.63774886 58.23413274 60.64151001 59.75817871 C60.64592266 62.94565079 60.63953672 66.13286992 60.62548828 69.3203125 C60.60839678 73.39572028 60.61824369 77.47053526 60.63620567 81.54592133 C60.64707233 84.69102402 60.64358402 87.83598735 60.6358223 90.98109436 C60.63382824 92.48332287 60.63625153 93.98556423 60.64326096 95.48777771 C60.65092336 97.59131142 60.63920605 99.69389958 60.62255859 101.79736328 C60.62017181 102.99171997 60.61778503 104.18607666 60.61532593 105.41662598 C60.05366935 110.2829665 58.46902226 113.57695212 54.87573242 116.89575195 C52.29264676 118.67709978 49.69803252 120.30721931 46.97265625 121.86181641 C45.9480127 122.44938721 44.92336914 123.03695801 43.86767578 123.64233398 C42.77181152 124.26519287 41.67594727 124.88805176 40.546875 125.52978516 C38.8132656 126.52191398 37.07966058 127.51405056 35.34631348 128.50663757 C33.53801768 129.54156125 31.72872413 130.57472673 29.91943359 131.60791016 C26.23231602 133.71574357 22.55453846 135.83950152 18.87890625 137.96728516 C18.28634537 138.3101506 17.69378448 138.65301605 17.08326721 139.00627136 C14.22606588 140.65961607 11.36929816 142.3137058 8.51293945 143.96850586 C7.48515381 144.56236084 6.45736816 145.15621582 5.3984375 145.76806641 C4.49561035 146.29053955 3.5927832 146.8130127 2.66259766 147.35131836 C-2.7587103 150.40100849 -6.48331196 151.77722908 -12.765625 150.71728516 C-16.6198391 149.14799639 -20.09187793 147.06666555 -23.640625 144.90478516 C-24.6313501 144.32253174 -25.6220752 143.74027832 -26.64282227 143.14038086 C-28.68426525 141.93938816 -30.72114245 140.73060133 -32.75341797 139.51416016 C-36.5328336 137.25962141 -40.34395287 135.0629466 -44.15869141 132.86889648 C-47.70136557 130.83038017 -51.23345599 128.77393899 -54.765625 126.71728516 C-54.08547904 122.84379241 -52.28345284 119.91135832 -50.30078125 116.54541016 C-49.95197906 115.95072433 -49.60317688 115.35603851 -49.24380493 114.74333191 C-48.11045932 112.81485612 -46.96960622 110.89095476 -45.828125 108.96728516 C-45.0431942 107.6367444 -44.25844545 106.30609622 -43.47387695 104.9753418 C-39.17838103 97.70499768 -34.82593061 90.47653011 -30.30517578 83.34350586 C-27.56500352 79.01780681 -24.89621002 74.65400581 -22.26757812 70.25952148 C-21.23280684 68.53667898 -20.18736375 66.82019695 -19.13085938 65.1105957 C-16.72634238 61.18950677 -14.54451296 57.3781447 -12.8125 53.11181641 C-9.31293086 45.00979484 -9.31293086 45.00979484 -5.765625 42.71728516 C1.75046004 40.93870156 9.64070041 41.79903727 17.234375 42.71728516 C14.57593053 47.3886732 11.90616151 52.0535212 9.234375 56.71728516 C8.70328125 57.64524902 8.1721875 58.57321289 7.625 59.52929688 C0.08774243 72.68766799 -7.55429637 85.77263485 -15.38720703 98.75732422 C-20.96333773 108.01082337 -26.39237664 117.34482077 -31.765625 126.71728516 C-28.22123061 130.53821249 -23.84984309 132.84933579 -19.390625 135.46728516 C-18.53984375 135.98677734 -17.6890625 136.50626953 -16.8125 137.04150391 C-15.98492187 137.52748047 -15.15734375 138.01345703 -14.3046875 138.51416016 C-13.55396973 138.96114258 -12.80325195 139.408125 -12.02978516 139.86865234 C-9.15108633 140.94762119 -7.67594892 140.62407292 -4.765625 139.71728516 C-2.74386216 138.80775138 -2.74386216 138.80775138 -0.84765625 137.65087891 C-0.15091797 137.24804688 0.54582031 136.84521484 1.26367188 136.43017578 C1.97587891 136.00929687 2.68808594 135.58841797 3.421875 135.15478516 C4.85064372 134.31635364 6.2815376 133.48152982 7.71484375 132.65087891 C8.34285889 132.28019287 8.97087402 131.90950684 9.61791992 131.52758789 C11.234375 130.71728516 11.234375 130.71728516 13.234375 130.71728516 C11.61354275 128.02719665 9.98817556 125.34004649 8.359375 122.65478516 C7.86993408 121.84436768 7.38049316 121.0339502 6.8762207 120.19897461 C4.4236513 116.17146901 1.92634544 112.21138384 -0.79296875 108.35791016 C-1.2617041 107.68896729 -1.73043945 107.02002441 -2.21337891 106.33081055 C-3.10761556 105.06880107 -4.01704306 103.81738874 -4.94287109 102.57836914 C-6.16015625 100.85400391 -6.16015625 100.85400391 -7.765625 97.71728516 C-7.34765625 95.35009766 -7.34765625 95.35009766 -5.765625 92.71728516 C-5.21177124 91.73707397 -5.21177124 91.73707397 -4.64672852 90.73706055 C-3.34278431 88.43973099 -1.99717697 86.17140491 -0.640625 83.90478516 C-0.17269531 83.11652344 0.29523438 82.32826172 0.77734375 81.51611328 C1.92652897 79.58126062 3.07894503 77.64841288 4.234375 75.71728516 C8.61303107 77.17683718 9.82974494 80.5958385 12.046875 84.40478516 C13.01614536 86.03233004 13.98760885 87.65857027 14.9609375 89.28369141 C15.48204102 90.15525879 16.00314453 91.02682617 16.54003906 91.92480469 C19.58762625 96.94761481 22.75754973 101.89250036 25.921875 106.84228516 C26.54618408 107.82028076 27.17049316 108.79827637 27.8137207 109.8059082 C29.28585546 112.11061169 30.75934431 114.41443443 32.234375 116.71728516 C33.884375 116.38728516 35.534375 116.05728516 37.234375 115.71728516 C34.25165379 109.49310066 30.84245545 103.68295941 27.171875 97.84228516 C26.32774048 96.48103516 26.32774048 96.48103516 25.46655273 95.09228516 C22.64251863 90.54022907 19.78646727 86.01356929 16.8671875 81.52197266 C16.34906494 80.71099121 15.83094238 79.90000977 15.29711914 79.06445312 C14.31654759 77.53032539 13.32145133 76.00535987 12.31030273 74.49121094 C9.10432038 69.43150176 9.10432038 69.43150176 9.703125 66.14306641 C10.46109375 64.94230469 10.46109375 64.94230469 11.234375 63.71728516 C11.84152344 62.61771484 12.44867188 61.51814453 13.07421875 60.38525391 C13.76920808 59.2225591 14.46851055 58.0624327 15.171875 56.90478516 C15.51927734 56.30730469 15.86667969 55.70982422 16.22460938 55.09423828 C17.26171875 53.38525391 17.26171875 53.38525391 19.234375 50.71728516 C20.224375 50.71728516 21.214375 50.71728516 22.234375 50.71728516 C23.88124518 53.00016677 25.31419171 55.23493384 26.734375 57.65478516 C27.62359539 59.12438597 28.51427135 60.59310684 29.40625 62.06103516 C29.86837891 62.82673828 30.33050781 63.59244141 30.80664062 64.38134766 C33.13061045 68.18362934 35.55525119 71.91912536 37.984375 75.65478516 C38.63696289 76.66303345 38.63696289 76.66303345 39.30273438 77.69165039 C41.64367766 81.30089975 44.01131864 84.89124677 46.39941406 88.46948242 C46.93246155 89.26838394 47.46550903 90.06728546 48.01470947 90.89039612 C48.4171991 91.4932695 48.81968872 92.09614288 49.234375 92.71728516 C49.56500473 85.45946368 49.79202519 78.2035897 49.94848633 70.93994141 C50.01371973 68.47175559 50.10233583 66.00406954 50.21508789 63.53759766 C51.38847738 50.83212142 51.38847738 50.83212142 48.14102173 38.91796875 C44.81319088 35.60832196 40.55795624 34.27891581 36.234375 32.71728516 C33.89832251 31.41913113 31.61514583 30.09925935 29.33203125 28.71728516 C28.16435431 28.04669423 26.99441317 27.3800308 25.82226562 26.71728516 C25.24065674 26.38728516 24.65904785 26.05728516 24.05981445 25.71728516 C23.47804443 25.38728516 22.89627441 25.05728516 22.296875 24.71728516 C20.53919803 23.71722336 18.78188321 22.71653279 17.0249939 21.71508789 C15.86009023 21.05295813 14.69361463 20.39358589 13.52554321 19.73706055 C10.47197064 18.01674999 7.4607047 16.2512786 4.48388672 14.40087891 C3.86573593 14.02511719 3.24758514 13.64935547 2.61070251 13.26220703 C0.89478639 12.21681574 -0.80995706 11.15314883 -2.51391602 10.08837891 C-6.514521 8.40151071 -8.59619399 8.64008745 -12.765625 9.71728516 C-15.37923737 10.82771896 -15.37923737 10.82771896 -17.78515625 12.35009766 C-18.71303955 12.90221924 -19.64092285 13.45434082 -20.59692383 14.02319336 C-21.58072021 14.62349365 -22.5645166 15.22379395 -23.578125 15.84228516 C-25.7026422 17.11002168 -27.82766121 18.37691756 -29.953125 19.64306641 C-31.05914062 20.3064502 -32.16515625 20.96983398 -33.3046875 21.65332031 C-38.61995644 24.83267924 -43.98138561 27.93259103 -49.34555054 31.02850342 C-51.05682088 32.01747317 -52.76536833 33.01114963 -54.47387695 34.00488281 C-55.51503662 34.6073584 -56.55619629 35.20983398 -57.62890625 35.83056641 C-58.54969971 36.36464111 -59.47049316 36.89871582 -60.41918945 37.44897461 C-62.765625 38.71728516 -62.765625 38.71728516 -65.765625 39.71728516 C-65.765625 56.87728516 -65.765625 74.03728516 -65.765625 91.71728516 C-63.744375 88.52041016 -61.723125 85.32353516 -59.640625 82.02978516 C-54.54477035 74.01820804 -49.41677471 66.02777701 -44.203125 58.09228516 C-43.34726807 56.77031128 -43.34726807 56.77031128 -42.47412109 55.42163086 C-38.56454097 49.5132938 -34.86526437 44.70477439 -27.765625 42.71728516 C-24.95568555 42.57967794 -22.25560576 42.52716943 -19.453125 42.59228516 C-18.71255859 42.60130859 -17.97199219 42.61033203 -17.20898438 42.61962891 C-15.39439033 42.64304302 -13.57996429 42.678909 -11.765625 42.71728516 C-16.17734651 51.32788197 -21.30737028 59.4202384 -26.5 67.57275391 C-29.73653375 72.65666399 -32.9132985 77.77601877 -36.078125 82.90478516 C-38.30659492 86.50938286 -40.53597371 90.11341809 -42.765625 93.71728516 C-43.41595703 94.76867676 -44.06628906 95.82006836 -44.73632812 96.90332031 C-46.76344635 100.17681615 -48.79527358 103.44734724 -50.828125 106.71728516 C-51.45952393 107.73846436 -52.09092285 108.75964355 -52.74145508 109.81176758 C-53.33853271 110.77058838 -53.93561035 111.72940918 -54.55078125 112.71728516 C-55.07551025 113.56291016 -55.60023926 114.40853516 -56.14086914 115.27978516 C-57.86486961 117.86617445 -59.82387953 120.29010331 -61.765625 122.71728516 C-68.695625 118.75728516 -68.695625 118.75728516 -75.765625 114.71728516 C-75.83342605 104.89447775 -75.88845567 95.071826 -75.92106152 85.24883747 C-75.93671139 80.68753166 -75.95793726 76.12639437 -75.99194336 71.56518555 C-76.02456103 67.16260816 -76.04248312 62.76019279 -76.05025673 58.35750389 C-76.05579592 56.67858518 -76.06661265 54.99967524 -76.08281517 53.32082558 C-76.10462177 50.96751431 -76.10759062 48.61487081 -76.10620117 46.26147461 C-76.12237991 45.22245499 -76.12237991 45.22245499 -76.1388855 44.16244507 C-76.11124278 39.830032 -75.35960912 37.18917855 -72.765625 33.71728516 C-68.32441382 29.48836897 -62.78289477 26.7906114 -57.453125 23.84228516 C-47.89945956 18.50800822 -38.42709663 13.0516823 -29.01245117 7.47558594 C-26.27642763 5.86566029 -23.52545781 4.28597917 -20.765625 2.71728516 C-19.89502441 2.20552734 -19.02442383 1.69376953 -18.12744141 1.16650391 C-11.430262 -2.5415245 -7.00255137 -3.24782882 0 0 Z " fill="#96BCDA" transform="translate(107.765625,25.28271484375)"/>
<path d="M0 0 C-2.65844447 4.67138805 -5.32821349 9.33623605 -8 14 C-8.53109375 14.92796387 -9.0621875 15.85592773 -9.609375 16.81201172 C-17.03733231 29.77956895 -24.54971701 42.68634851 -32.27441406 55.47973633 C-35.69405532 61.14514567 -39.08297726 66.82647326 -42.4296875 72.53515625 C-43.16866494 73.79307141 -43.90767828 75.05096549 -44.64672852 76.30883789 C-45.72418913 78.14307951 -46.79984639 79.97825691 -47.86984253 81.81686401 C-48.85269306 83.50556322 -49.84220354 85.19038097 -50.83203125 86.875 C-51.39639893 87.84179688 -51.9607666 88.80859375 -52.54223633 89.8046875 C-54 92 -54 92 -56 93 C-57.69580078 92.28735352 -57.69580078 92.28735352 -59.6953125 91.12890625 C-60.41074219 90.71962891 -61.12617187 90.31035156 -61.86328125 89.88867188 C-62.60964844 89.45103516 -63.35601562 89.01339844 -64.125 88.5625 C-64.87910156 88.12873047 -65.63320312 87.69496094 -66.41015625 87.24804688 C-68.27757134 86.17251034 -70.13932697 85.08715861 -72 84 C-71.31985404 80.12650725 -69.51782784 77.19407317 -67.53515625 73.828125 C-67.18635406 73.23343918 -66.83755188 72.63875336 -66.47817993 72.02604675 C-65.34483432 70.09757096 -64.20398122 68.1736696 -63.0625 66.25 C-62.2775692 64.91945924 -61.49282045 63.58881107 -60.70825195 62.25805664 C-56.41275603 54.98771252 -52.06030561 47.75924496 -47.53955078 40.6262207 C-44.79937852 36.30052166 -42.13058502 31.93672066 -39.50195312 27.54223633 C-38.46718184 25.81939382 -37.42173875 24.1029118 -36.36523438 22.39331055 C-33.96071738 18.47222161 -31.77888796 14.66085954 -30.046875 10.39453125 C-24.08676478 -3.40400783 -13.63565007 -1.64886008 0 0 Z " fill="#FDFDFD" transform="translate(125,68)"/>
<path d="M0 0 C0.74056641 0.00902344 1.48113281 0.01804687 2.24414062 0.02734375 C4.05873467 0.05075787 5.87316071 0.08662385 7.6875 0.125 C3.27577849 8.73559681 -1.85424528 16.82795325 -7.046875 24.98046875 C-10.28340875 30.06437884 -13.4601735 35.18373362 -16.625 40.3125 C-18.85346992 43.91709771 -21.08284871 47.52113294 -23.3125 51.125 C-23.96283203 52.1763916 -24.61316406 53.2277832 -25.28320312 54.31103516 C-27.31032135 57.584531 -29.34214858 60.85506208 -31.375 64.125 C-32.00639893 65.1461792 -32.63779785 66.1673584 -33.28833008 67.21948242 C-33.88540771 68.17830322 -34.48248535 69.13712402 -35.09765625 70.125 C-35.62238525 70.970625 -36.14711426 71.81625 -36.68774414 72.6875 C-38.41174461 75.27388929 -40.37075453 77.69781816 -42.3125 80.125 C-49.2425 76.165 -49.2425 76.165 -56.3125 72.125 C-56.3125 64.76588572 -56.16666043 62.80201156 -52.1875 57.5 C-51.26002598 56.18961459 -50.33573612 54.87697165 -49.4140625 53.5625 C-48.91293945 52.85480469 -48.41181641 52.14710937 -47.89550781 51.41796875 C-44.98288472 47.19906744 -42.29037689 42.83961367 -39.5625 38.5 C-34.67839862 30.79838053 -29.75826158 23.12155704 -24.75 15.5 C-24.17862305 14.61747559 -23.60724609 13.73495117 -23.01855469 12.82568359 C-16.81895793 3.45646491 -11.41621581 -0.26525613 0 0 Z " fill="#FCFDFD" transform="translate(88.3125,67.875)"/>
<path d="M0 0 C4.02308991 3.54593273 6.43228749 7.74784831 9.125 12.3125 C12.74291821 18.34562637 16.44655998 24.28905756 20.375 30.125 C20.78878906 30.74858398 21.20257813 31.37216797 21.62890625 32.01464844 C23.26533841 34.47329448 24.91293321 36.88881336 26.734375 39.21484375 C30.56110006 44.29922845 31.01708857 49.47583765 30.828125 55.765625 C29.80513685 59.76106929 28.66021683 60.74263002 25.1875 62.875 C22.14843774 64.33971399 20.38774422 65 17 65 C15.79589844 63.54492188 15.79589844 63.54492188 14.609375 61.46875 C14.15409424 60.68886719 13.69881348 59.90898437 13.22973633 59.10546875 C12.74142334 58.24566406 12.25311035 57.38585937 11.75 56.5 C10.68872308 54.67561206 9.62479558 52.85276413 8.55859375 51.03125 C7.98995605 50.05800781 7.42131836 49.08476563 6.83544922 48.08203125 C2.9704423 41.59202762 -1.11815762 35.23694885 -5.18652344 28.87304688 C-5.79915039 27.90431641 -6.41177734 26.93558594 -7.04296875 25.9375 C-7.58977295 25.08027344 -8.13657715 24.22304687 -8.69995117 23.33984375 C-9.93627264 21.11469728 -10.75562111 19.52844304 -11 17 C-10.21142578 15.09301758 -10.21142578 15.09301758 -8.9453125 13.14453125 C-8.49542969 12.44005859 -8.04554687 11.73558594 -7.58203125 11.00976562 C-7.10121094 10.28466797 -6.62039062 9.55957031 -6.125 8.8125 C-5.65191406 8.07580078 -5.17882812 7.33910156 -4.69140625 6.58007812 C-1.2476461 1.2476461 -1.2476461 1.2476461 0 0 Z " fill="#289FED" transform="translate(128,75)"/>
<path d="M0 0 C4.36090584 1.45363528 5.54844787 4.82894284 7.75 8.625 C12.37957007 16.41616892 17.21825441 24.04601522 22.1875 31.625 C22.85942383 32.65061035 23.53134766 33.6762207 24.22363281 34.73291016 C25.81362766 37.15668279 27.40561004 39.57911714 29 42 C26.91006261 44.24830883 24.89046062 45.78046574 22.20703125 47.26171875 C21.1387207 47.85629883 21.1387207 47.85629883 20.04882812 48.46289062 C18.9418457 49.06907227 18.9418457 49.06907227 17.8125 49.6875 C17.06291016 50.10322266 16.31332031 50.51894531 15.54101562 50.94726562 C13.69651534 51.96937725 11.8485869 52.9852981 10 54 C5.72337154 50.26562347 3.06792825 45.59753825 0.125 40.8125 C-0.89206304 39.17245334 -1.91029004 37.53312793 -2.9296875 35.89453125 C-3.42694336 35.0845166 -3.92419922 34.27450195 -4.43652344 33.43994141 C-5.50195587 31.77724125 -6.62312876 30.14927457 -7.79003906 28.55615234 C-8.3569043 27.77836426 -8.92376953 27.00057617 -9.5078125 26.19921875 C-10.03262207 25.51045654 -10.55743164 24.82169434 -11.09814453 24.11206055 C-12 22 -12 22 -11.3046875 19.50048828 C-10.11998216 17.22995084 -8.92735586 14.99337971 -7.6171875 12.79296875 C-6.95009766 11.66665039 -6.95009766 11.66665039 -6.26953125 10.51757812 C-5.80933594 9.74865234 -5.34914063 8.97972656 -4.875 8.1875 C-4.40707031 7.39923828 -3.93914062 6.61097656 -3.45703125 5.79882812 C-2.30784603 3.86397546 -1.15542997 1.93112772 0 0 Z " fill="#299FEC" transform="translate(112,101)"/>
<path d="M0 0 C1.48828125 1.05078125 1.48828125 1.05078125 3 3 C3.29296875 6.35546875 3.29296875 6.35546875 3.1875 10.1875 C3.16042969 11.45980469 3.13335937 12.73210937 3.10546875 14.04296875 C3.07066406 15.01878906 3.03585938 15.99460938 3 17 C1.02 17.99 -0.96 18.98 -3 20 C-2.67 18.68 -2.34 17.36 -2 16 C-0.68 16 0.64 16 2 16 C1.51678033 11.2808973 0.9853646 6.64529026 0 2 C0 1.34 0 0.68 0 0 Z " fill="#309BE2" transform="translate(155,117)"/>
<path d="M0 0 C0.33 0 0.66 0 1 0 C1.1875 2.3125 1.1875 2.3125 1 5 C0.525625 5.45375 0.05125 5.9075 -0.4375 6.375 C-2.85256539 8.88666801 -2.68264342 11.63602027 -3 15 C-3.99 14.01 -4.98 13.02 -6 12 C-4.43358249 7.69235185 -2.31663844 3.93828536 0 0 Z " fill="#3698DD" transform="translate(106,111)"/>
<path d="M0 0 C4 4.625 4 4.625 4 8 C2.68 7.67 1.36 7.34 0 7 C-0.38133299 5.0085944 -0.71325582 3.00720923 -1 1 C-0.67 0.67 -0.34 0.34 0 0 Z " fill="#2D99DF" transform="translate(145,101)"/>
<path d="M0 0 C0.99 0.33 1.98 0.66 3 1 C2 3 1 5 0 7 C-0.99 7 -1.98 7 -3 7 C-1.125 2.25 -1.125 2.25 0 0 Z " fill="#369ADF" transform="translate(112,101)"/>
<path d="M0 0 C0.99 0.33 1.98 0.66 3 1 C3 1.66 3 2.32 3 3 C3.66 3 4.32 3 5 3 C6.625 5.5 6.625 5.5 8 8 C7.34 8.66 6.68 9.32 6 10 C4.02 6.7 2.04 3.4 0 0 Z " fill="#1F3A55" transform="translate(135,85)"/>
<path d="M0 0 C1.9375 0.625 1.9375 0.625 4 2 C4.75 5.125 4.75 5.125 5 8 C2.20127563 5.47211993 0.54226981 3.79588866 0 0 Z " fill="#2E98DE" transform="translate(139,128)"/>
<path d="M0 0 C1.32 0.33 2.64 0.66 4 1 C1.525 4.465 1.525 4.465 -1 8 C-2.2077558 4.37673261 -1.54311128 3.35853631 0 0 Z " fill="#203E5D" transform="translate(125,74)"/>
<path d="M0 0 C2.79872437 2.52788007 4.45773019 4.20411134 5 8 C4.38125 7.2884375 4.38125 7.2884375 3.75 6.5625 C1.817815 4.83733482 0.51807725 4.43415125 -2 4 C-1.34 2.68 -0.68 1.36 0 0 Z " fill="#329AD8" transform="translate(128,75)"/>
<path d="M0 0 C0 0.99 0 1.98 0 3 C-0.639375 3.103125 -1.27875 3.20625 -1.9375 3.3125 C-2.618125 3.539375 -3.29875 3.76625 -4 4 C-4.33 4.99 -4.66 5.98 -5 7 C-5.66 7 -6.32 7 -7 7 C-3.86206897 0 -3.86206897 0 0 0 Z " fill="#93B3CE" transform="translate(40,56)"/>
<path d="M0 0 C2.0625 0.4375 2.0625 0.4375 4 1 C4 1.66 4 2.32 4 3 C4.66 3.33 5.32 3.66 6 4 C4.02 4.99 4.02 4.99 2 6 C1.67 5.01 1.34 4.02 1 3 C0.34 2.34 -0.32 1.68 -1 1 C-0.67 0.67 -0.34 0.34 0 0 Z " fill="#374152" transform="translate(69,111)"/>
<path d="M0 0 C0.99 0.33 1.98 0.66 3 1 C3 3.31 3 5.62 3 8 C0.9375 5.6875 0.9375 5.6875 -1 3 C-0.67 2.01 -0.34 1.02 0 0 Z " fill="#243B55" transform="translate(155,112)"/>
<path d="M0 0 C0.66 0.99 1.32 1.98 2 3 C0.68 4.65 -0.64 6.3 -2 8 C-1.34 8.33 -0.68 8.66 0 9 C-1.32 8.67 -2.64 8.34 -4 8 C-2.68 5.36 -1.36 2.72 0 0 Z " fill="#9FBCD1" transform="translate(74,153)"/>
<path d="M0 0 C-0.3125 1.9375 -0.3125 1.9375 -1 4 C-1.99 4.33 -2.98 4.66 -4 5 C-4.66 4.67 -5.32 4.34 -6 4 C-6 3.34 -6 2.68 -6 2 C-2.25 0 -2.25 0 0 0 Z " fill="#2F3D55" transform="translate(68,51)"/>
</svg>
