<?xml version="1.0" encoding="UTF-8"?>
<svg version="1.1" xmlns="http://www.w3.org/2000/svg" width="1000" height="750">
<path d="M0 0 C330 0 660 0 1000 0 C1000 247.5 1000 495 1000 750 C670 750 340 750 0 750 C0 502.5 0 255 0 0 Z " fill="#FEFEFE" transform="translate(0,0)"/>
<path d="M0 0 C0.72058594 0.16016602 1.44117188 0.32033203 2.18359375 0.48535156 C6.51472594 1.47948571 10.7500517 2.70712099 15 4 C16.65307251 4.47206437 18.30676402 4.9419644 19.9609375 5.41015625 C28.08618042 7.73897078 35.97619087 10.10363388 43.58984375 13.83203125 C47.6287299 15.78928726 51.81829243 17.3763001 56 19 C56 19.66 56 20.32 56 21 C56.83144531 21.24492188 57.66289063 21.48984375 58.51953125 21.7421875 C62.50309912 23.18181584 66.0156105 25.03384215 69.6875 27.125 C70.39229492 27.52460937 71.09708984 27.92421875 71.82324219 28.3359375 C77.87121536 31.82186458 83.4636637 35.74946961 89 40 C89.97453125 40.72058594 90.9490625 41.44117188 91.953125 42.18359375 C110.36729914 55.80536103 110.36729914 55.80536103 115.5 62 C117.71995235 65.19907001 117.71995235 65.19907001 121 66 C121.66666667 67.33333333 122.33333333 68.66666667 123 70 C124.64302953 71.68997323 126.31471312 73.35216394 128 75 C131.90034914 79.13571503 135.03690244 82.60148172 137 88 C137.99 88.33 138.98 88.66 140 89 C142.63788514 92.09664777 144.75517883 95.61236078 147 99 C147.86124678 100.24790161 148.72326908 101.49526824 149.5859375 102.7421875 C156.77546885 113.30041866 162.08766353 124.23289172 167 136 C167.54713986 137.26477212 168.09522965 138.52913399 168.64453125 139.79296875 C180.80774052 168.70867206 186.22565877 199.07948267 186.25 230.3125 C186.25100708 231.20772369 186.25201416 232.10294739 186.25305176 233.02529907 C186.24362894 245.40286392 185.90480749 257.448233 183.47070312 269.62402344 C182.94312747 272.28707647 182.47794794 274.95768506 182.015625 277.6328125 C181.67936443 279.52644815 181.34088043 281.41969054 181 283.3125 C180.8462793 284.16739014 180.69255859 285.02228027 180.53417969 285.90307617 C179.66023809 290.46141442 178.50698929 294.6714878 176.79003906 298.98266602 C175.94876246 301.13083305 175.21407884 303.29722459 174.4921875 305.48828125 C170.50035988 317.45881455 165.62641233 328.71401377 160 340 C159.47921875 341.06734375 158.9584375 342.1346875 158.421875 343.234375 C147.92764579 364.60214292 131.91847159 383.44245581 115 400 C113.8553125 401.175625 113.8553125 401.175625 112.6875 402.375 C94.44888241 420.1894637 72.997257 434.12532808 50 445 C48.82630859 445.56267578 48.82630859 445.56267578 47.62890625 446.13671875 C45.43963482 447.14813655 43.22896287 448.07896926 41 449 C40.14075928 449.36859131 40.14075928 449.36859131 39.26416016 449.74462891 C11.58343621 461.55075712 -18.16727512 466.44136673 -48.125 466.3125 C-49.02863281 466.31034485 -49.93226563 466.3081897 -50.86328125 466.30596924 C-64.44390688 466.25404544 -77.67007322 465.81448586 -91 463 C-92.48161621 462.69400879 -92.48161621 462.69400879 -93.99316406 462.38183594 C-108.40190087 459.33323656 -122.24567329 455.24257682 -136 450 C-137.03253906 449.62617187 -138.06507813 449.25234375 -139.12890625 448.8671875 C-163.8636769 439.36734671 -187.18996284 423.28202881 -206.515625 405.296875 C-208.65342273 403.3204205 -210.833984 401.43445344 -213.0625 399.5625 C-226.55452027 387.77069366 -237.23562633 372.67992452 -246.89501953 357.70605469 C-247.89468688 356.16260011 -248.91307477 354.63131014 -249.93359375 353.1015625 C-254.58457504 346.03704303 -258.41188337 338.65239088 -262 331 C-262.29406738 330.37464355 -262.58813477 329.74928711 -262.89111328 329.10498047 C-267.44276391 319.32303333 -271.13519372 309.36610548 -274.35205078 299.07080078 C-274.92830184 297.22914235 -275.5233767 295.39339766 -276.12109375 293.55859375 C-278.37436138 286.27273615 -279.8546205 278.94024359 -281.1875 271.4375 C-281.35459473 270.50397705 -281.52168945 269.5704541 -281.69384766 268.60864258 C-292.07686304 207.28897034 -275.59164287 144.41911529 -240.34277344 93.88867188 C-237.4094287 89.76278916 -234.28218273 85.85141738 -231 82 C-230.06479103 80.88046984 -229.12992083 79.76065663 -228.1953125 78.640625 C-219.77907225 68.61948405 -211.02567206 59.38097454 -200.76171875 51.20703125 C-198.96991323 49.77510746 -197.19984587 48.31538272 -195.45703125 46.82421875 C-167.54852975 23.05343759 -132.51700603 7.91913614 -97 0 C-96.06526855 -0.21317871 -95.13053711 -0.42635742 -94.16748047 -0.64599609 C-64.26853468 -7.15654188 -29.8035577 -6.76165244 0 0 Z " fill="#E94042" transform="translate(559,67)"/>
<path d="M0 0 C5.83352001 1.54952875 8.9059438 7.43213246 11.9375 12.2890625 C12.52325806 13.21428711 12.52325806 13.21428711 13.12084961 14.15820312 C15.91991248 18.62377342 18.50679254 23.17770384 20.98046875 27.83203125 C22.7228819 31.07945935 24.54085635 34.28046588 26.375 37.4765625 C26.70918945 38.05986328 27.04337891 38.64316406 27.38769531 39.24414062 C28.78597737 41.68278727 30.18675343 44.11998789 31.58935547 46.55615234 C32.31493373 47.81660578 33.03987579 49.07742567 33.76416016 50.33862305 C34.75415954 52.06247619 35.74615808 53.78518078 36.73828125 55.5078125 C38.42101146 58.52254866 39.97809137 61.56547219 41.5 64.6640625 C41.84909424 65.26549072 42.19818848 65.86691895 42.55786133 66.48657227 C45.51047139 71.76241851 46.13838635 76.09920478 46 82.1015625 C45.98791504 82.94267578 45.97583008 83.78378906 45.96337891 84.65039062 C45.76546186 90.81580647 44.79449944 95.3928634 41.5 100.6640625 C40.51702568 102.49535712 39.53809859 104.32882795 38.5625 106.1640625 C37.54386538 107.99861839 36.52315583 109.83202431 35.5 111.6640625 C35.11070312 112.38078125 34.72140625 113.0975 34.3203125 113.8359375 C32.08560101 117.9354772 29.72980787 121.94244216 27.29736328 125.92822266 C23.88365284 131.52864141 20.67188675 137.13401761 17.8125 143.0390625 C15.44370181 147.90856412 12.85946408 152.35575217 9.765625 156.79296875 C8.0743851 159.29328947 6.82688484 161.95500596 5.5 164.6640625 C4.53121127 166.29527087 3.55090086 167.91966258 2.5625 169.5390625 C0.80577493 172.43123182 -0.86099322 175.29540831 -2.3125 178.3515625 C-4.26886318 182.40402909 -6.59926839 186.19984929 -8.9375 190.0390625 C-11.92887945 194.95760381 -14.68558708 199.88756679 -17.19921875 205.0703125 C-24.66102173 219.94910284 -32.94954293 234.96204991 -49.5 240.6640625 C-53.60351686 241.67366473 -57.46982316 241.79666782 -61.68945312 241.80932617 C-62.74651711 241.81436409 -62.74651711 241.81436409 -63.82493591 241.81950378 C-66.14372542 241.82896714 -68.46244241 241.83095434 -70.78125 241.83203125 C-72.39880401 241.83524626 -74.01635773 241.83861051 -75.63391113 241.84211731 C-79.01978225 241.84809645 -82.40562788 241.84995838 -85.79150391 241.84936523 C-90.12585321 241.8492635 -94.46003912 241.86293265 -98.79434967 241.88013744 C-102.13324736 241.89126367 -105.47210557 241.89328428 -108.8110199 241.89275551 C-110.4089769 241.89393403 -112.00693497 241.89834864 -113.60487366 241.90608788 C-115.84021432 241.91590354 -118.0752003 241.913004 -120.31054688 241.90698242 C-121.58119995 241.90840744 -122.85185303 241.90983246 -124.16101074 241.91130066 C-128.81592116 241.56662405 -131.57521306 240.34223959 -135.3125 237.6015625 C-137.90838162 234.11566433 -138.24403654 232.27896824 -137.97265625 228.02734375 C-137.10446048 223.68636488 -134.81745648 220.38164894 -132.5 216.6640625 C-130.99790508 214.0518793 -129.53181052 211.41979007 -128.0625 208.7890625 C-127.27613195 207.3931783 -126.48967468 205.99734436 -125.703125 204.6015625 C-123.44950008 200.58741349 -121.25017767 196.54534766 -119.08203125 192.484375 C-117.6721146 189.97089396 -116.20836707 187.50576119 -114.71875 185.0390625 C-111.43861459 179.59586254 -108.30219523 174.07817677 -105.1875 168.5390625 C-104.62281006 167.53713867 -104.05812012 166.53521484 -103.47631836 165.50292969 C-102.3433115 163.49220066 -101.21089221 161.48114042 -100.07910156 159.46972656 C-98.67708908 156.978705 -97.27278033 154.48900237 -95.8671875 152 C-92.71063516 146.40645628 -89.56451671 140.80878537 -86.5 135.1640625 C-80.55284074 124.21736825 -74.37977845 113.41118062 -68.03369141 102.69140625 C-65.20445964 97.89919313 -62.47493295 93.06501066 -59.8515625 88.15625 C-58.50077479 85.66549116 -57.10171325 83.2054803 -55.69140625 80.74804688 C-54.28865415 78.2943805 -52.89975146 75.83311676 -51.51171875 73.37109375 C-41.13431937 54.96829838 -41.13431937 54.96829838 -35.91015625 46.0859375 C-34.55238939 43.75403873 -33.23786328 41.40335937 -31.9375 39.0390625 C-29.78158961 35.12622513 -27.49202837 31.30632701 -25.1796875 27.484375 C-22.8333952 23.54478653 -20.56651243 19.56133083 -18.3034668 15.57348633 C-9.54206004 0.14909469 -9.54206004 0.14909469 0 0 Z " fill="#FEFDFD" transform="translate(513.5,150.3359375)"/>
<path d="M0 0 C0.7321875 0.00128906 1.464375 0.00257813 2.21875 0.00390625 C6.89466245 0.89264988 9.06616799 2.81795223 11.78125 6.6953125 C12.53332371 7.97712792 13.27246974 9.2665967 14 10.5625 C14.38945801 11.23394043 14.77891602 11.90538086 15.18017578 12.59716797 C16.30046592 14.53654478 17.4035589 16.4845621 18.5 18.4375 C19.02335938 19.365625 19.54671875 20.29375 20.0859375 21.25 C20.87474993 22.6650817 21.65751473 24.08358272 22.4296875 25.5078125 C23.24221272 26.97273022 24.09141434 28.41737683 24.95703125 29.8515625 C26.49292035 32.42563486 27.9075022 35.04006613 29.3125 37.6875 C31.19443794 41.16006853 33.14105898 44.49343748 35.375 47.75 C38.37884608 52.13356541 40.99358913 56.71288034 43.59790039 61.33935547 C45.42294727 64.57536666 47.29682451 67.75434578 49.3125 70.875 C51.47774776 74.26503438 53.00676965 77.70442411 54.5 81.4375 C54.83 82.0975 55.16 82.7575 55.5 83.4375 C55.97306915 86.88414664 56.1431458 89.3753667 54.30078125 92.41796875 C51.54212052 95.78812103 49.82753005 97.58110312 45.5 98.4375 C42.62386758 98.54239871 39.77162459 98.59469332 36.89526367 98.59863281 C36.02810226 98.60359772 35.16094086 98.60856262 34.26750183 98.61367798 C31.4009827 98.62827335 28.53451892 98.63509724 25.66796875 98.640625 C23.67263284 98.64637862 21.67729694 98.65213633 19.68196106 98.65789795 C15.4981765 98.66840047 11.31441112 98.67424804 7.13061523 98.67773438 C1.77739856 98.68321746 -3.57556356 98.70724477 -8.92870045 98.73570633 C-13.05088535 98.75435704 -17.17300924 98.75953961 -21.29523277 98.76107025 C-23.26834187 98.76409181 -25.24145002 98.77210353 -27.21451759 98.78525543 C-29.97890051 98.80236671 -32.74266526 98.80042328 -35.50708008 98.79394531 C-36.31719543 98.8031601 -37.12731079 98.81237488 -37.9619751 98.8218689 C-43.90953655 98.77835006 -48.80616717 97.78374149 -53.4375 93.75 C-55.24953089 89.80616806 -55.1922197 85.53266627 -53.8425293 81.44750977 C-52.92845542 79.43634473 -51.93243008 77.50203374 -50.875 75.5625 C-50.51108154 74.86632568 -50.14716309 74.17015137 -49.7722168 73.45288086 C-47.30074192 68.77417002 -44.67414084 64.19727795 -41.88671875 59.69921875 C-39.62938025 56.01753145 -37.56886884 52.22737478 -35.5 48.4375 C-34.84 48.4375 -34.18 48.4375 -33.5 48.4375 C-33.38527344 47.70015625 -33.27054688 46.9628125 -33.15234375 46.203125 C-32.48555318 43.37625241 -31.6104405 41.62561592 -30.0625 39.1875 C-27.16194485 34.51593281 -24.34416723 29.80538418 -21.5625 25.0625 C-21.13114746 24.33168213 -20.69979492 23.60086426 -20.25537109 22.84790039 C-18.29470035 19.52230401 -16.35057873 16.19171141 -14.4765625 12.81640625 C-13.88617187 11.76324219 -13.29578125 10.71007812 -12.6875 9.625 C-12.18605469 8.71105469 -11.68460938 7.79710937 -11.16796875 6.85546875 C-8.25690053 2.63544245 -5.28429983 -0.13955017 0 0 Z " fill="#FEFCFC" transform="translate(591.5,293.5625)"/>
<path d="M0 0 C11 0 11 0 13.5703125 2.046875 C14.08335937 2.93890625 14.59640625 3.8309375 15.125 4.75 C15.66382813 5.63171875 16.20265625 6.5134375 16.7578125 7.421875 C17.83182096 9.65094917 18.53667603 11.58167488 19 14 C19.66 14 20.32 14 21 14 C22.23681641 15.60473633 22.23681641 15.60473633 23.6015625 17.83203125 C24.09140625 18.63060547 24.58125 19.42917969 25.0859375 20.25195312 C25.59382812 21.09693359 26.10171875 21.94191406 26.625 22.8125 C27.140625 23.64587891 27.65625 24.47925781 28.1875 25.33789062 C32 31.61641245 32 31.61641245 32 35 C32.66 35 33.32 35 34 35 C34.33 23.78 34.66 12.56 35 1 C37.64 1 40.28 1 43 1 C43 16.51 43 32.02 43 48 C39.37 48 35.74 48 32 48 C29.18087881 45.10115254 27.65011943 43.11015102 25.75 39.6875 C25.25113281 38.86604492 24.75226562 38.04458984 24.23828125 37.19824219 C23.24754014 35.56223268 22.27244378 33.91663041 21.31445312 32.26123047 C19.62955313 29.3627268 17.82525556 26.5619856 16 23.75 C15.505 22.96109375 15.01 22.1721875 14.5 21.359375 C12.71046612 18.54458733 10.85019426 15.7752914 9 13 C8.67 24.55 8.34 36.1 8 48 C5.36 48 2.72 48 0 48 C0 32.16 0 16.32 0 0 Z " fill="#E94547" transform="translate(545,586)"/>
<path d="M0 0 C2.05078125 0.03255208 4.1015625 0.06510417 6.15234375 0.09765625 C6.38308594 0.77570312 6.61382812 1.45375 6.8515625 2.15234375 C8.51932541 6.91173041 10.26221121 11.49417339 12.58984375 15.97265625 C15.10237592 20.81331455 16.98351542 25.7992512 18.8828125 30.90625 C20.41138946 34.7488573 22.24838701 38.35289826 24.234375 41.9765625 C25.15234375 44.09765625 25.15234375 44.09765625 25.15234375 48.09765625 C22.18234375 48.09765625 19.21234375 48.09765625 16.15234375 48.09765625 C15.48114826 46.64140175 14.81552568 45.18257758 14.15234375 43.72265625 C13.78109375 42.91054688 13.40984375 42.0984375 13.02734375 41.26171875 C12.15234375 39.09765625 12.15234375 39.09765625 12.15234375 37.09765625 C1.75734375 37.59265625 1.75734375 37.59265625 -8.84765625 38.09765625 C-10.82765625 43.04765625 -10.82765625 43.04765625 -12.84765625 48.09765625 C-15.81765625 48.09765625 -18.78765625 48.09765625 -21.84765625 48.09765625 C-21.25694368 42.41493209 -19.15127949 37.73440209 -16.84765625 32.578125 C-16.45191406 31.67894852 -16.05617188 30.77977203 -15.6484375 29.85334778 C-14.81440831 27.96176686 -13.97710153 26.07162808 -13.13671875 24.18286133 C-11.84564787 21.28064159 -10.56456832 18.3741725 -9.28515625 15.46679688 C-8.47323206 13.6286518 -7.66075159 11.79075232 -6.84765625 9.953125 C-6.46222656 9.08028366 -6.07679688 8.20744232 -5.6796875 7.30815125 C-5.32261719 6.5067421 -4.96554687 5.70533295 -4.59765625 4.87963867 C-4.283125 4.17159592 -3.96859375 3.46355316 -3.64453125 2.73405457 C-2.3742408 0.12548841 -2.3742408 0.12548841 0 0 Z " fill="#E94749" transform="translate(387.84765625,585.90234375)"/>
<path d="M0 0 C2.64 0 5.28 0 8 0 C8.86382929 2.0489786 9.72744454 4.09804706 10.59082031 6.1472168 C11.3255575 7.89099088 12.06058639 9.63464207 12.79589844 11.37817383 C14.80218692 16.13934607 16.78774709 20.90796861 18.75 25.6875 C20.09197375 28.92985268 21.50745264 32.07402539 23.125 35.1875 C25.26100698 39.31190372 26.61602807 43.57128984 28 48 C24.7 48 21.4 48 18 48 C14 39.25 14 39.25 14 37 C7.07 37 0.14 37 -7 37 C-7.33 38.32 -7.66 39.64 -8 41 C-8.92902153 43.36828288 -9.97046415 45.67235373 -11 48 C-13.97 48 -16.94 48 -20 48 C-19.31938338 43.40653576 -17.59778031 39.36419069 -15.76171875 35.13671875 C-15.2786602 34.01049858 -15.2786602 34.01049858 -14.7858429 32.86152649 C-14.10471521 31.27624682 -13.4212483 29.69197043 -12.7355957 28.10864258 C-11.69647169 25.70822496 -10.66501288 23.30462944 -9.63476562 20.90039062 C-8.96920309 19.35397158 -8.30320135 17.80774148 -7.63671875 16.26171875 C-7.33239426 15.55311203 -7.02806976 14.84450531 -6.71452332 14.11442566 C-4.63513994 9.32213125 -2.36928758 4.65602046 0 0 Z " fill="#E94748" transform="translate(272,586)"/>
<path d="M0 0 C2.64 0 5.28 0 8 0 C12.12605768 7.94648145 15.52211023 16.1381904 18.734375 24.4921875 C19.03690186 25.27803223 19.33942871 26.06387695 19.65112305 26.87353516 C20.24262698 28.41591375 20.83026304 29.95978335 21.41333008 31.50537109 C22.84580504 35.25069191 24.38531872 38.85136333 26.21484375 42.421875 C28 46 28 46 28 48 C24.7 48 21.4 48 18 48 C16.68 44.7 15.36 41.4 14 38 C7.07 37.67 0.14 37.34 -7 37 C-7.495 39.475 -7.495 39.475 -8 42 C-8.95394836 44.02237052 -9.94535351 46.0282696 -11 48 C-13.97 48 -16.94 48 -20 48 C-18.03979097 41.85151826 -15.79691567 35.9955439 -13.125 30.125 C-12.77276367 29.34125 -12.42052734 28.5575 -12.05761719 27.75 C-10.14081905 23.49122943 -8.1971274 19.24497961 -6.25 15 C-3.99367591 10.06668123 -1.96327994 5.05626844 0 0 Z " fill="#E94648" transform="translate(497,586)"/>
<path d="M0 0 C10.56 0 21.12 0 32 0 C32 2.64 32 5.28 32 8 C24.41 8 16.82 8 9 8 C9 11.96 9 15.92 9 20 C15.93 20 22.86 20 30 20 C30 22.31 30 24.62 30 27 C19.605 27.495 19.605 27.495 9 28 C8.67 32.29 8.34 36.58 8 41 C16.25 41 24.5 41 33 41 C33 43.64 33 46.28 33 49 C22.11 49 11.22 49 0 49 C0 32.83 0 16.66 0 0 Z " fill="#EA4A4C" transform="translate(736,586)"/>
<path d="M0 0 C2.97 0 5.94 0 9 0 C9 15.84 9 31.68 9 48 C6.36 48 3.72 48 1 48 C1 41.07 1 34.14 1 27 C-6.59 27 -14.18 27 -22 27 C-22 33.93 -22 40.86 -22 48 C-24.64 48 -27.28 48 -30 48 C-30 32.49 -30 16.98 -30 1 C-27.69 1 -25.38 1 -23 1 C-23 6.94 -23 12.88 -23 19 C-15.41 19 -7.82 19 0 19 C0 12.73 0 6.46 0 0 Z " fill="#E94849" transform="translate(703,586)"/>
<path d="M0 0 C0 4 0 4 -1.25 5.8125 C-3 7 -3 7 -4.9375 6.8125 C-7 6 -7 6 -8.828125 4.9765625 C-12.77171068 3.2033675 -16.77752702 3.35138664 -21 4 C-25.06396064 5.93168147 -27.51486364 8.27229546 -30 12 C-30.39578725 15.4549488 -30.39578725 15.4549488 -30.375 19.3125 C-30.40335938 20.60800781 -30.43171875 21.90351562 -30.4609375 23.23828125 C-29.80928576 28.55642212 -27.12465864 32.5926733 -23 36 C-18.67860952 37.44046349 -14.25599241 38.08251249 -10.0625 36.0703125 C-9.464375 35.69648437 -8.86625 35.32265625 -8.25 34.9375 C-5 33 -5 33 -2.75 33.125 C-1 34 -1 34 2 36 C1.6875 37.9375 1.6875 37.9375 1 40 C0.01 40.33 -0.98 40.66 -2 41 C-2 41.66 -2 42.32 -2 43 C-11.57271672 46.72272317 -19.45584896 47.09506827 -29 43 C-34.16204705 38.98507452 -38.83954461 32.56793824 -40 26 C-40.63919145 18.07821738 -40.58435149 11.66237933 -36 5 C-35.401875 4.0925 -34.80375 3.185 -34.1875 2.25 C-24.70189115 -7.50662624 -10.70832734 -7.40328804 0 0 Z " fill="#E9494A" transform="translate(650,590)"/>
<path d="M0 0 C3.3 0 6.6 0 10 0 C10.20753906 0.65742187 10.41507812 1.31484375 10.62890625 1.9921875 C13.01838429 9.37057575 15.72954656 16.57345634 18.62524414 23.76708984 C20.10782451 27.49497713 21.40448585 31.00608509 22 35 C23.88471652 31.48102216 25.21175896 27.83330549 26.56640625 24.08203125 C27.05663415 22.73241952 27.54686872 21.38281022 28.03710938 20.03320312 C28.80373748 17.91344063 29.56941654 15.79333794 30.3347168 13.6730957 C31.07632451 11.62106978 31.82123641 9.57026575 32.56640625 7.51953125 C33.00927979 6.29339111 33.45215332 5.06725098 33.90844727 3.80395508 C35 1 35 1 36 0 C37.51928038 -0.07179964 39.04167482 -0.08392007 40.5625 -0.0625 C41.38878906 -0.05347656 42.21507812 -0.04445313 43.06640625 -0.03515625 C43.70449219 -0.02355469 44.34257812 -0.01195312 45 0 C38.26098867 20.57171879 38.26098867 20.57171879 34.1796875 29.42578125 C32.48814305 33.11693288 30.8732684 36.84091966 29.25 40.5625 C28.63027341 41.98049719 28.0104868 43.39846816 27.390625 44.81640625 C26.93171875 45.86699219 26.4728125 46.91757812 26 48 C23.36 48 20.72 48 18 48 C17.68289063 47.195625 17.36578125 46.39125 17.0390625 45.5625 C16.57242187 44.386875 16.10578125 43.21125 15.625 42 C15.36750977 41.3507959 15.11001953 40.7015918 14.84472656 40.03271484 C13.09709979 35.65764232 11.29127972 31.31110637 9.4453125 26.9765625 C9.00106934 25.92855469 8.55682617 24.88054688 8.09912109 23.80078125 C7.21515379 21.71995485 6.32507079 19.64171348 5.42822266 17.56640625 C2.95857641 11.73830987 1.16016777 6.22623372 0 0 Z " fill="#E9494A" transform="translate(310,586)"/>
<path d="M0 0 C2.97 0 5.94 0 9 0 C9 13.2 9 26.4 9 40 C15.93 40 22.86 40 30 40 C30 42.64 30 45.28 30 48 C29 49 29 49 26.22436523 49.11352539 C25.01466064 49.10828857 23.80495605 49.10305176 22.55859375 49.09765625 C21.38353271 49.09515869 20.20847168 49.09266113 18.99780273 49.09008789 C17.49290283 49.08098389 15.98800293 49.07187988 14.4375 49.0625 C9.673125 49.041875 4.90875 49.02125 0 49 C0 32.83 0 16.66 0 0 Z " fill="#EB5355" transform="translate(433,586)"/>
<path d="M0 0 C2 1 2 1 2.77783203 2.76586914 C3.01872559 3.51473389 3.25961914 4.26359863 3.5078125 5.03515625 C3.77207031 5.84404297 4.03632813 6.65292969 4.30859375 7.48632812 C4.57800781 8.33646484 4.84742188 9.18660156 5.125 10.0625 C5.40214844 10.91650391 5.67929687 11.77050781 5.96484375 12.65039062 C6.64994733 14.76476203 7.32583823 16.88211444 8 19 C3.05 19 -1.9 19 -7 19 C-6.10656817 14.53284086 -4.76463639 10.80385599 -2.9375 6.6875 C-2.65583984 6.04232422 -2.37417969 5.39714844 -2.08398438 4.73242188 C-1.3937257 3.15301642 -0.69746802 1.57623507 0 0 Z " fill="#FDEDED" transform="translate(389,597)"/>
<path d="M0 0 C0.66 0 1.32 0 2 0 C3.00904375 2.2463236 4.0073602 4.49643937 5 6.75 C5.28617187 7.38421875 5.57234375 8.0184375 5.8671875 8.671875 C7.36006702 12.08417104 8 14.20781917 8 18 C3.38 18 -1.24 18 -6 18 C-4.76281145 11.50476013 -2.89324549 5.94098468 0 0 Z " fill="#FDEDED" transform="translate(500,598)"/>
<path d="M0 0 C3.37538004 1.68769002 3.90150506 5.55093626 5.125 8.9375 C5.40214844 9.67935547 5.67929687 10.42121094 5.96484375 11.18554688 C8 16.71455511 8 16.71455511 8 19 C3.38 19 -1.24 19 -6 19 C-4.25 9.375 -4.25 9.375 -2 6 C-1.29835358 4.01200182 -0.62627128 2.01301483 0 0 Z " fill="#FDF0F1" transform="translate(275,597)"/>
<path d="M0 0 C1.0703125 1.86328125 1.0703125 1.86328125 2 4 C0.875 6.1875 0.875 6.1875 -1 9 C-2.09433057 11.31740591 -3.11332941 13.66058527 -4.1328125 16.01171875 C-4.71965178 17.35721962 -5.34353173 18.68706346 -6 20 C-6.66 20 -7.32 20 -8 20 C-6.54884678 15.42111848 -4.79418096 11.02350565 -2.875 6.625 C-2.59785156 5.98433594 -2.32070313 5.34367188 -2.03515625 4.68359375 C-1.35899615 3.12143075 -0.67981293 1.56057685 0 0 Z " fill="#ED6768" transform="translate(486,611)"/>
<path d="M0 0 C0.66 0.33 1.32 0.66 2 1 C-1.465 3.97 -1.465 3.97 -5 7 C-5 6.01 -5 5.02 -5 4 C-2.5 1.8125 -2.5 1.8125 0 0 Z " fill="#FAD6D6" transform="translate(587,294)"/>
</svg>
