<?xml version="1.0" encoding="UTF-8"?>
<svg version="1.1" xmlns="http://www.w3.org/2000/svg" width="200" height="200">
<path d="M0 0 C2.16585104 0.02148274 4.32838768 0.00004279 6.49414062 -0.02539062 C19.20199291 -0.05184507 30.83153721 2.49867057 42.41601562 7.89648438 C43.0744043 8.19321045 43.73279297 8.48993652 44.41113281 8.7956543 C49.37132243 11.06494709 54.18556444 13.56983114 58.93164062 16.25976562 C61.11428481 17.54821946 61.11428481 17.54821946 63.33789062 18.43945312 C65.65069783 19.80835824 66.03045557 21.12122214 67.16601562 23.52148438 C68.99428884 25.45199333 68.99428884 25.45199333 71.10351562 27.20898438 C71.79316406 27.81097656 72.4828125 28.41296875 73.19335938 29.03320312 C75.19603534 30.70867198 75.19603534 30.70867198 78.16601562 31.52148438 C78.56820312 32.66617187 78.56820312 32.66617187 78.97851562 33.83398438 C79.98705012 36.7772393 79.98705012 36.7772393 83.04101562 38.39648438 C86.99952527 41.08827093 88.13552129 43.2262079 90.16601562 47.52148438 C90.16601562 49.18815104 90.16601562 50.85481771 90.16601562 52.52148438 C90.74738281 52.6890625 91.32875 52.85664062 91.92773438 53.02929688 C95.39532332 55.34102284 96.40395257 58.63484326 97.97851562 62.39648438 C98.30271484 63.11707031 98.62691406 63.83765625 98.9609375 64.58007812 C101.30407307 70.02899724 101.30407307 70.02899724 100.63755798 72.40663147 C99.9921711 75.30117171 100.89770861 77.56163609 101.66784668 80.36453247 C102.47508458 83.85967872 102.45178652 87.28876492 102.43164062 90.86132812 C102.43355408 91.6277211 102.43546753 92.39411407 102.43743896 93.18373108 C102.43879046 94.79298229 102.43516701 96.4022448 102.42675781 98.01147461 C102.41605809 100.44930998 102.42668071 102.88640611 102.43945312 105.32421875 C102.4445554 112.99381623 102.09951498 120.05784915 100.16601562 127.52148438 C100.49601563 128.51148438 100.82601562 129.50148437 101.16601562 130.52148438 C100.15115288 133.2927285 99.0767678 135.90797237 97.85351562 138.58398438 C97.53189453 139.31681641 97.21027344 140.04964844 96.87890625 140.8046875 C94.44883591 146.23866409 94.44883591 146.23866409 92.16601562 148.52148438 C89.55189466 151.56938627 89.55189466 151.56938627 89.16601562 155.52148438 C88.18847918 156.54345429 87.18542752 157.54128063 86.16601562 158.52148438 C85.85664063 159.20210937 85.54726562 159.88273438 85.22851562 160.58398438 C84.16601562 162.52148438 84.16601562 162.52148438 82.22851562 163.39648438 C79.85036865 164.43894771 79.85036865 164.43894771 78.66601562 167.52148438 C76.98822781 170.87706001 76.42415724 171.08406896 73.16601562 172.52148438 C71.4582159 174.1459768 69.79050805 175.81368465 68.16601562 177.52148438 C67.60914063 178.05773437 67.05226562 178.59398437 66.47851562 179.14648438 C64.92682621 180.69256465 64.92682621 180.69256465 63.16601562 183.52148438 C61.50602744 183.8866256 59.83796143 184.21572941 58.16601562 184.52148438 C55.59354665 185.80231056 55.59354665 185.80231056 53.10351562 187.39648438 C52.26691406 187.90953125 51.4303125 188.42257813 50.56835938 188.95117188 C47.6365044 190.86760391 44.89464831 192.86571496 42.29101562 195.20898438 C40.16601563 196.52148438 40.16601563 196.52148438 37.45898438 196.48046875 C33.73833927 196.5268113 30.89901145 197.37811358 27.35351562 198.49023438 C19.64200827 200.71337596 12.32402958 201.13682239 4.33203125 201.04296875 C2.16618021 201.02148601 0.00364357 201.04292596 -2.16210938 201.06835938 C-14.86996166 201.09481382 -26.49950596 198.54429818 -38.08398438 193.14648438 C-39.07156738 192.70139526 -39.07156738 192.70139526 -40.07910156 192.24731445 C-45.03929118 189.97802166 -49.85353319 187.47313761 -54.59960938 184.78320312 C-56.78225356 183.49474929 -56.78225356 183.49474929 -59.00585938 182.60351562 C-61.31866658 181.23461051 -61.69842432 179.92174661 -62.83398438 177.52148438 C-64.66225759 175.59097542 -64.66225759 175.59097542 -66.77148438 173.83398438 C-67.80595703 172.93099609 -67.80595703 172.93099609 -68.86132812 172.00976562 C-70.86400409 170.33429677 -70.86400409 170.33429677 -73.83398438 169.52148438 C-74.10210937 168.75835937 -74.37023437 167.99523437 -74.64648438 167.20898438 C-75.65501887 164.26572945 -75.65501887 164.26572945 -78.70898438 162.64648438 C-82.66749402 159.95469782 -83.80349004 157.81676085 -85.83398438 153.52148438 C-85.83398438 151.85481771 -85.83398438 150.18815104 -85.83398438 148.52148438 C-86.70603516 148.27011719 -86.70603516 148.27011719 -87.59570312 148.01367188 C-91.06329207 145.70194591 -92.07192132 142.40812549 -93.64648438 138.64648438 C-94.1327832 137.56560547 -94.1327832 137.56560547 -94.62890625 136.46289062 C-96.97204182 131.01397151 -96.97204182 131.01397151 -96.30552673 128.63633728 C-95.66013985 125.74179704 -96.56567736 123.48133266 -97.33581543 120.67843628 C-98.14305333 117.18329003 -98.11975527 113.75420383 -98.09960938 110.18164062 C-98.10152283 109.41524765 -98.10343628 108.64885468 -98.10540771 107.85923767 C-98.10675921 106.24998646 -98.10313576 104.64072395 -98.09472656 103.03149414 C-98.08402684 100.59365877 -98.09464946 98.15656264 -98.10742188 95.71875 C-98.11252415 88.04915252 -97.76748373 80.9851196 -95.83398438 73.52148438 C-96.16398437 72.53148438 -96.49398437 71.54148437 -96.83398438 70.52148438 C-95.81912163 67.75024025 -94.74473655 65.13499638 -93.52148438 62.45898438 C-93.03905273 61.35973633 -93.03905273 61.35973633 -92.546875 60.23828125 C-90.11680466 54.80430466 -90.11680466 54.80430466 -87.83398438 52.52148438 C-85.21986341 49.47358248 -85.21986341 49.47358248 -84.83398438 45.52148438 C-82.49933102 41.22533947 -80.16918608 38.68908523 -75.83398438 36.52148438 C-75.33898437 35.53148437 -74.84398438 34.54148438 -74.33398438 33.52148438 C-72.65619656 30.16590874 -72.09212599 29.95889979 -68.83398438 28.52148438 C-67.12618465 26.89699195 -65.4584768 25.2292841 -63.83398438 23.52148438 C-63.27710938 22.98523438 -62.72023437 22.44898437 -62.14648438 21.89648438 C-60.59479496 20.3504041 -60.59479496 20.3504041 -58.83398438 17.52148438 C-57.17399619 17.15634315 -55.50593018 16.82723934 -53.83398438 16.52148438 C-51.2615154 15.24065819 -51.2615154 15.24065819 -48.77148438 13.64648438 C-47.93488281 13.1334375 -47.09828125 12.62039063 -46.23632812 12.09179688 C-43.30447315 10.17536484 -40.56261706 8.17725379 -37.95898438 5.83398438 C-35.83398438 4.52148438 -35.83398438 4.52148438 -33.12695312 4.5625 C-29.40630802 4.51615745 -26.5669802 3.66485517 -23.02148438 2.55273438 C-15.30997702 0.32959279 -7.99199833 -0.09385364 0 0 Z M-92.83398438 63.52148438 C-91.83398438 65.52148438 -91.83398438 65.52148438 -91.83398438 65.52148438 Z M96.16601562 63.52148438 C97.16601562 65.52148438 97.16601562 65.52148438 97.16601562 65.52148438 Z M-93.83398438 65.52148438 C-92.83398438 67.52148438 -92.83398438 67.52148438 -92.83398438 67.52148438 Z M97.16601562 65.52148438 C98.16601562 67.52148438 98.16601562 67.52148438 98.16601562 67.52148438 Z M-94.83398438 68.52148438 C-93.83398438 70.52148438 -93.83398438 70.52148438 -93.83398438 70.52148438 Z M98.16601562 68.52148438 C99.16601562 70.52148438 99.16601562 70.52148438 99.16601562 70.52148438 Z M-94.83398438 130.52148438 C-93.83398438 132.52148438 -93.83398438 132.52148438 -93.83398438 132.52148438 Z M98.16601562 130.52148438 C99.16601562 132.52148438 99.16601562 132.52148438 99.16601562 132.52148438 Z M-93.83398438 133.52148438 C-92.83398438 135.52148438 -92.83398438 135.52148438 -92.83398438 135.52148438 Z M97.16601562 133.52148438 C98.16601562 135.52148438 98.16601562 135.52148438 98.16601562 135.52148438 Z M-92.83398438 135.52148438 C-91.83398438 137.52148438 -91.83398438 137.52148438 -91.83398438 137.52148438 Z M96.16601562 135.52148438 C97.16601562 137.52148438 97.16601562 137.52148438 97.16601562 137.52148438 Z " fill="#EBEEEF" transform="translate(97.833984375,-0.521484375)"/>
<path d="M0 0 C0.66 0 1.32 0 2 0 C3.58129883 2.23706055 3.58129883 2.23706055 5.45703125 5.38671875 C5.79626114 5.95124252 6.13549103 6.5157663 6.48500061 7.09739685 C7.60071915 8.95692774 8.70641666 10.82222485 9.8125 12.6875 C10.97162385 14.62363043 12.13335241 16.55818287 13.29510498 18.49273682 C14.0772582 19.79572694 14.85854411 21.09923806 15.63897705 22.40325928 C18.99653889 28.01123566 22.42098567 33.57591044 25.875 39.125 C30.29149343 46.23358095 34.68158906 53.35709139 39.02197266 60.51245117 C41.28243022 64.22976904 43.57845628 67.91713415 45.94140625 71.5703125 C46.64873901 72.67185669 46.64873901 72.67185669 47.37036133 73.7956543 C48.26902401 75.19079989 49.1760324 76.58061602 50.0925293 77.96411133 C51.13977528 79.59516563 52.08041673 81.29370902 53 83 C51.5541869 87.33743931 48.28172285 88.29377126 44.4375 90.3125 C42.80201379 91.19538051 41.1679768 92.08094924 39.53515625 92.96875 C38.20701904 93.68998047 38.20701904 93.68998047 36.85205078 94.42578125 C31.64282926 97.30106462 26.51099112 100.30895245 21.375 103.3125 C20.36880615 103.89878174 19.3626123 104.48506348 18.32592773 105.08911133 C17.35985596 105.6539624 16.39378418 106.21881348 15.3984375 106.80078125 C14.47514648 107.33783691 13.55185547 107.87489258 12.60058594 108.42822266 C9.57651114 110.25595393 6.68694863 112.2465881 3.83837891 114.33666992 C2 115 2 115 -0.37646484 114.31762695 C-3.16620526 112.91652617 -5.87792485 111.44244659 -8.578125 109.875 C-9.64909424 109.25536377 -10.72006348 108.63572754 -11.82348633 107.99731445 C-12.95423584 107.33820068 -14.08498535 106.67908691 -15.25 106 C-16.42005595 105.32036711 -17.59022268 104.64092491 -18.76049805 103.96166992 C-21.09010999 102.60856814 -23.41838149 101.25320058 -25.74560547 99.89599609 C-28.59924879 98.23347591 -31.45685223 96.57810351 -34.31640625 94.92578125 C-35.81534693 94.0551053 -37.31406487 93.18404571 -38.8125 92.3125 C-39.47991211 91.92771484 -40.14732422 91.54292969 -40.83496094 91.14648438 C-44.47217758 89.01765961 -47.77888537 86.7180072 -51 84 C-42.2109375 69.3515625 -42.2109375 69.3515625 -40.59643555 66.66186523 C-39.55488572 64.92520553 -38.51462305 63.18777303 -37.47583008 61.44946289 C-34.01485006 55.6627043 -30.49429096 49.91579962 -26.9375 44.1875 C-26.38239746 43.29168213 -25.82729492 42.39586426 -25.25537109 41.47290039 C-22.34482252 36.77631476 -19.42979778 32.08253491 -16.51171875 27.390625 C-15.38264846 25.57301856 -14.2537391 23.75531213 -13.125 21.9375 C-12.58182129 21.06416016 -12.03864258 20.19082031 -11.47900391 19.29101562 C-7.93050402 13.56530055 -4.52038058 7.78762753 -1.26953125 1.88671875 C-0.85058594 1.26410156 -0.43164062 0.64148438 0 0 Z " fill="#303131" transform="translate(102,17)"/>
<path d="M0 0 C4.55142026 1.62550724 8.50189016 3.9611477 12.625 6.4375 C14.1363024 7.33663769 15.64803819 8.23504723 17.16015625 9.1328125 C17.94793457 9.60106445 18.73571289 10.06931641 19.54736328 10.55175781 C24.47495151 13.46141871 29.43999072 16.30700568 34.40283203 19.15600586 C35.14774902 19.58534424 35.89266602 20.01468262 36.66015625 20.45703125 C37.74514404 21.07892334 37.74514404 21.07892334 38.85205078 21.71337891 C40.31451119 22.58939236 41.75045875 23.51088205 43.15966797 24.47021484 C44.19244873 25.17138428 44.19244873 25.17138428 45.24609375 25.88671875 C45.84993896 26.31557373 46.45378418 26.74442871 47.07592773 27.1862793 C49.78091767 28.33026248 51.21730808 27.86514098 54 27 C55.84297301 26.11811598 57.65167833 25.16270532 59.4296875 24.15625 C60.46552979 23.57343262 61.50137207 22.99061523 62.56860352 22.39013672 C63.65971436 21.7663916 64.7508252 21.14264648 65.875 20.5 C66.99382568 19.86723145 68.11265137 19.23446289 69.26538086 18.58251953 C76.01690528 14.74945264 82.71137816 10.83339124 89.33959961 6.79125977 C93.46316109 4.28501788 97.63324163 2.04970291 102 0 C100.73424249 2.64398662 99.36324713 5.04867577 97.671875 7.44140625 C97.20869873 8.09810303 96.74552246 8.7547998 96.26831055 9.43139648 C95.76726807 10.13466064 95.26622559 10.8379248 94.75 11.5625 C94.22639893 12.30121338 93.70279785 13.03992676 93.16333008 13.80102539 C88.47368682 20.39081247 83.67632473 26.89956457 78.86450195 33.40039062 C75.48188593 37.97390957 72.1522719 42.57231445 68.92578125 47.2578125 C67.21852691 49.68883187 65.48163796 52.09274656 63.73046875 54.4921875 C63.13886963 55.30421631 62.54727051 56.11624512 61.93774414 56.95288086 C60.74608468 58.58621666 59.55134647 60.2173115 58.35327148 61.84594727 C57.80614502 62.59674561 57.25901855 63.34754395 56.6953125 64.12109375 C56.20047363 64.7958374 55.70563477 65.47058105 55.19580078 66.16577148 C53.82756698 68.09530183 53.82756698 68.09530183 53 71 C52.01 71 51.02 71 50 71 C48.60888672 69.44628906 48.60888672 69.44628906 47.1796875 67.265625 C46.64923828 66.47019287 46.11878906 65.67476074 45.57226562 64.85522461 C45.01216797 63.99550049 44.45207031 63.13577637 43.875 62.25 C42.69733991 60.48432317 41.51765335 58.71999625 40.3359375 56.95703125 C39.76198242 56.09803223 39.18802734 55.2390332 38.59667969 54.35400391 C35.98596575 50.50499722 33.1784643 46.82767488 30.359375 43.12890625 C25.71271231 36.96669299 21.24442972 30.67311595 16.73779297 24.40820312 C14.94826123 21.92830132 13.1492022 19.45556033 11.34765625 16.984375 C10.7556543 16.17049316 10.16365234 15.35661133 9.55371094 14.51806641 C8.41729006 12.95620473 7.27871438 11.39590798 6.13769531 9.83740234 C5.62432617 9.1305127 5.11095703 8.42362305 4.58203125 7.6953125 C4.13061768 7.07672363 3.6792041 6.45813477 3.21411133 5.82080078 C1.96317278 3.94477029 0.96505847 2.03575361 0 0 Z " fill="#323333" transform="translate(52,112)"/>
<path d="M0 0 C0.66 0.33 1.32 0.66 2 1 C1.67 21.13 1.34 41.26 1 62 C-16.86962306 69.81796009 -16.86962306 69.81796009 -23.5625 72.5 C-29.92511928 75.06823315 -36.14093908 77.86358232 -42.26782227 80.95507812 C-46.67602386 83.10799205 -46.67602386 83.10799205 -50 82 C-49.47998413 81.16359985 -49.47998413 81.16359985 -48.94946289 80.31030273 C-43.12584096 70.93801649 -37.30527316 61.5672877 -31.65966797 52.08642578 C-27.89796111 45.79012872 -24.03883879 39.5542319 -20.1875 33.3125 C-13.36958587 22.26073251 -6.64437399 11.15688374 0 0 Z " fill="#828384" transform="translate(102,17)"/>
<path d="M0 0 C0.33 17.49 0.66 34.98 1 53 C-2.83458442 51.46616623 -6.041871 49.92776979 -9.578125 47.875 C-10.64909424 47.25536377 -11.72006348 46.63572754 -12.82348633 45.99731445 C-13.95423584 45.33820068 -15.08498535 44.67908691 -16.25 44 C-17.42005595 43.32036711 -18.59022268 42.64092491 -19.76049805 41.96166992 C-22.09010999 40.60856814 -24.41838149 39.25320058 -26.74560547 37.89599609 C-29.59924879 36.23347591 -32.45685223 34.57810351 -35.31640625 32.92578125 C-36.81534693 32.0551053 -38.31406487 31.18404571 -39.8125 30.3125 C-40.47991211 29.92771484 -41.14732422 29.54292969 -41.83496094 29.14648438 C-45.47217758 27.01765961 -48.77888537 24.7180072 -52 22 C-39.72689401 16.15281292 -27.2943685 10.68077591 -14.83300781 5.24853516 C-12.99779702 4.43973922 -11.16851115 3.61730703 -9.34667969 2.77880859 C-8.15026855 2.22894287 -8.15026855 2.22894287 -6.9296875 1.66796875 C-6.23858887 1.34465576 -5.54749023 1.02134277 -4.83544922 0.68823242 C-3 0 -3 0 0 0 Z " fill="#353636" transform="translate(103,79)"/>
<path d="M0 0 C4.97887821 0.82981304 7.24309239 1.42073503 11.4375 3.6875 C15.96384414 6.03718049 20.49138185 8.04089691 25.25 9.875 C33.44502801 13.03492908 41.20659136 16.96504204 49 21 C49 22.32 49 23.64 49 25 C47.68515625 25.73089844 47.68515625 25.73089844 46.34375 26.4765625 C35.60651132 32.46994381 24.98313202 38.65139898 14.37109375 44.86328125 C12.98059814 45.67466553 12.98059814 45.67466553 11.56201172 46.50244141 C9.97204809 47.43181408 8.38462364 48.36556335 6.80126953 49.30615234 C2.21924407 52 2.21924407 52 0 52 C0 34.84 0 17.68 0 0 Z " fill="#141414" transform="translate(103,79)"/>
<path d="M0 0 C4.55150864 1.6255388 8.50167428 3.96140132 12.625 6.4375 C14.14027547 7.33782811 15.65591451 8.23754454 17.171875 9.13671875 C17.96013672 9.60513184 18.74839844 10.07354492 19.56054688 10.55615234 C23.65173227 12.97761656 27.76206514 15.36571985 31.875 17.75 C32.62217285 18.18497803 33.3693457 18.61995605 34.13916016 19.06811523 C40.03541237 22.48530546 46.00585755 25.75802644 52 29 C51.99476318 30.20124512 51.98952637 31.40249023 51.98413086 32.64013672 C51.96606347 37.08674376 51.9545616 41.53334753 51.94506836 45.97998047 C51.94003213 47.90641831 51.93320288 49.83285231 51.92456055 51.75927734 C51.91246392 54.52442368 51.90676467 57.28951958 51.90234375 60.0546875 C51.89718246 60.9193161 51.89202118 61.7839447 51.88670349 62.67477417 C51.75616111 66.97251002 51.75616111 66.97251002 53 71 C52.01 71 51.02 71 50 71 C48.60888672 69.44628906 48.60888672 69.44628906 47.1796875 67.265625 C46.64923828 66.47019287 46.11878906 65.67476074 45.57226562 64.85522461 C45.01216797 63.99550049 44.45207031 63.13577637 43.875 62.25 C42.69733991 60.48432317 41.51765335 58.71999625 40.3359375 56.95703125 C39.76198242 56.09803223 39.18802734 55.2390332 38.59667969 54.35400391 C35.98596575 50.50499722 33.1784643 46.82767488 30.359375 43.12890625 C25.71271231 36.96669299 21.24442972 30.67311595 16.73779297 24.40820312 C14.94826123 21.92830132 13.1492022 19.45556033 11.34765625 16.984375 C10.7556543 16.17049316 10.16365234 15.35661133 9.55371094 14.51806641 C8.41729006 12.95620473 7.27871438 11.39590798 6.13769531 9.83740234 C5.62432617 9.1305127 5.11095703 8.42362305 4.58203125 7.6953125 C4.13061768 7.07672363 3.6792041 6.45813477 3.21411133 5.82080078 C1.96317278 3.94477029 0.96505847 2.03575361 0 0 Z " fill="#838485" transform="translate(52,112)"/>
<path d="M0 0 C1.32 1.32 2.64 2.64 4 4 C3.67 4.66 3.34 5.32 3 6 C2.34 6 1.68 6 1 6 C1 23.82 1 41.64 1 60 C0.67 60 0.34 60 0 60 C0 40.2 0 20.4 0 0 Z " fill="#414242" transform="translate(103,18)"/>
<path d="M0 0 C0 0.66 0 1.32 0 2 C-4.95 3.485 -4.95 3.485 -10 5 C-4.54545455 -2.27272727 -4.54545455 -2.27272727 0 0 Z " fill="#F1F4F5" transform="translate(72,4)"/>
<path d="M0 0 C0.66 1.32 1.32 2.64 2 4 C0.68 4 -0.64 4 -2 4 C-1.34 2.68 -0.68 1.36 0 0 Z M-2 5 C-1.34 5.66 -0.68 6.32 0 7 C-1.32 7.99 -2.64 8.98 -4 10 C-3.125 6.125 -3.125 6.125 -2 5 Z " fill="#F2F5F6" transform="translate(25,30)"/>
<path d="M0 0 C0.99 0.33 1.98 0.66 3 1 C-0.465 3.97 -0.465 3.97 -4 7 C-3.04065919 3.16263678 -2.76390737 2.40339772 0 0 Z " fill="#F2F4F5" transform="translate(32,25)"/>
<path d="M0 0 C0 3 0 3 -1.5 4.6875 C-1.995 5.120625 -2.49 5.55375 -3 6 C-4.32 5.34 -5.64 4.68 -7 4 C-4.69 2.68 -2.38 1.36 0 0 Z " fill="#464747" transform="translate(153,112)"/>
<path d="M0 0 C1.98 0.495 1.98 0.495 4 1 C3.67 2.98 3.34 4.96 3 7 C1.68 6.01 0.36 5.02 -1 4 C-0.67 2.68 -0.34 1.36 0 0 Z " fill="#E0E1E7" transform="translate(3,65)"/>
<path d="M0 0 C2.475 0.495 2.475 0.495 5 1 C4.01 1.33 3.02 1.66 2 2 C1.34 1.34 0.68 0.68 0 0 Z " fill="#FDFFFF" transform="translate(65,196)"/>
<path d="M0 0 C0.99 0.33 1.98 0.66 3 1 C1.35 1.33 -0.3 1.66 -2 2 C-1.34 1.34 -0.68 0.68 0 0 Z " fill="#ECECED" transform="translate(132,196)"/>
<path d="M0 0 C2.475 0.495 2.475 0.495 5 1 C4.01 1.33 3.02 1.66 2 2 C1.34 1.34 0.68 0.68 0 0 Z " fill="#FCFDFD" transform="translate(60,194)"/>
<path d="M0 0 C2.475 0.495 2.475 0.495 5 1 C4.01 1.33 3.02 1.66 2 2 C1.34 1.34 0.68 0.68 0 0 Z " fill="#FCFDFD" transform="translate(135,4)"/>
<path d="M0 0 C0.99 0.33 1.98 0.66 3 1 C1.35 1.33 -0.3 1.66 -2 2 C-1.34 1.34 -0.68 0.68 0 0 Z " fill="#ECECED" transform="translate(67,2)"/>
<path d="M0 0 C2.475 0.495 2.475 0.495 5 1 C4.01 1.33 3.02 1.66 2 2 C1.34 1.34 0.68 0.68 0 0 Z " fill="#FDFFFF" transform="translate(130,2)"/>
<path d="M0 0 C0.99 0.33 1.98 0.66 3 1 C2.01 1 1.02 1 0 1 C0 0.67 0 0.34 0 0 Z " fill="#B2B0C4" transform="translate(42,184)"/>
<path d="M0 0 C0.99 0.33 1.98 0.66 3 1 C2.01 1 1.02 1 0 1 C0 0.67 0 0.34 0 0 Z " fill="#B2B0C4" transform="translate(155,14)"/>
<path d="M0 0 C0.66 0.33 1.32 0.66 2 1 C1.01 1 0.02 1 -1 1 C-0.67 0.67 -0.34 0.34 0 0 Z " fill="#C5BFD2" transform="translate(43,14)"/>
<path d="M0 0 C3 1 3 1 3 1 Z " fill="#FEFFFF" transform="translate(123,199)"/>
<path d="M0 0 C3 1 3 1 3 1 Z " fill="#D3D7D9" transform="translate(74,199)"/>
<path d="M0 0 C3 1 3 1 3 1 Z " fill="#BBC2C7" transform="translate(127,198)"/>
<path d="M0 0 C3 1 3 1 3 1 Z " fill="#D4D7D9" transform="translate(70,198)"/>
<path d="" fill="#FEFFFF" transform="translate(0,0)"/>
<path d="" fill="#FEFFFF" transform="translate(0,0)"/>
<path d="" fill="#FEFFFF" transform="translate(0,0)"/>
<path d="" fill="#FEFFFF" transform="translate(0,0)"/>
<path d="M0 0 C3 1 3 1 3 1 Z " fill="#D4D7D9" transform="translate(127,1)"/>
<path d="M0 0 C3 1 3 1 3 1 Z " fill="#BBC2C7" transform="translate(70,1)"/>
<path d="M0 0 C3 1 3 1 3 1 Z " fill="#D3D7D9" transform="translate(123,0)"/>
<path d="M0 0 C3 1 3 1 3 1 Z " fill="#FEFFFF" transform="translate(74,0)"/>
<path d="M0 0 C2 1 2 1 2 1 Z " fill="#EBE6E6" transform="translate(58,193)"/>
<path d="M0 0 C2 1 2 1 2 1 Z " fill="#BEC1C4" transform="translate(142,192)"/>
<path d="M0 0 C2 1 2 1 2 1 Z " fill="#FAFFFF" transform="translate(56,192)"/>
<path d="M0 0 C2 1 2 1 2 1 Z " fill="#FAFFFF" transform="translate(144,191)"/>
<path d="M0 0 C2 1 2 1 2 1 Z " fill="#FEFFFF" transform="translate(54,191)"/>
<path d="M0 0 C2 1 2 1 2 1 Z " fill="#FEFFFF" transform="translate(156,184)"/>
<path d="M0 0 C2 1 2 1 2 1 Z " fill="#FEFFFF" transform="translate(144,8)"/>
<path d="M0 0 C2 1 2 1 2 1 Z " fill="#FAFFFF" transform="translate(54,8)"/>
<path d="M0 0 C2 1 2 1 2 1 Z " fill="#FAFFFF" transform="translate(142,7)"/>
<path d="M0 0 C2 1 2 1 2 1 Z " fill="#BEC1C4" transform="translate(56,7)"/>
<path d="M0 0 C2 1 2 1 2 1 Z " fill="#EBE6E6" transform="translate(140,6)"/>
<path d="" fill="#FFFFFF" transform="translate(0,0)"/>
<path d="" fill="#FFFFFF" transform="translate(0,0)"/>
<path d="" fill="#FEFFFF" transform="translate(0,0)"/>
<path d="" fill="#FEFFFF" transform="translate(0,0)"/>
<path d="" fill="#FEFFFF" transform="translate(0,0)"/>
<path d="" fill="#FFFFFF" transform="translate(0,0)"/>
<path d="" fill="#FFFFFF" transform="translate(0,0)"/>
<path d="" fill="#D9CECE" transform="translate(0,0)"/>
<path d="" fill="#D9CECE" transform="translate(0,0)"/>
<path d="" fill="#FFFFFF" transform="translate(0,0)"/>
<path d="" fill="#FFFFFF" transform="translate(0,0)"/>
<path d="" fill="#FFFFFF" transform="translate(0,0)"/>
<path d="" fill="#FFFFFF" transform="translate(0,0)"/>
<path d="" fill="#B6C2C7" transform="translate(0,0)"/>
<path d="" fill="#B6C2C7" transform="translate(0,0)"/>
<path d="" fill="#FEFFFF" transform="translate(0,0)"/>
<path d="" fill="#FFFFFF" transform="translate(0,0)"/>
<path d="" fill="#FFFFFF" transform="translate(0,0)"/>
<path d="" fill="#FFFFFF" transform="translate(0,0)"/>
<path d="" fill="#FFFFFF" transform="translate(0,0)"/>
<path d="" fill="#FFFFFF" transform="translate(0,0)"/>
<path d="" fill="#B6C2C7" transform="translate(0,0)"/>
<path d="" fill="#B6C2C7" transform="translate(0,0)"/>
<path d="" fill="#FFFFFF" transform="translate(0,0)"/>
<path d="" fill="#FFFFFF" transform="translate(0,0)"/>
<path d="" fill="#FFFFFF" transform="translate(0,0)"/>
<path d="" fill="#B6C2C7" transform="translate(0,0)"/>
<path d="" fill="#FEFFFF" transform="translate(0,0)"/>
<path d="" fill="#FEFFFF" transform="translate(0,0)"/>
<path d="" fill="#FFFFFF" transform="translate(0,0)"/>
<path d="" fill="#FFFFFF" transform="translate(0,0)"/>
<path d="" fill="#FFFFFF" transform="translate(0,0)"/>
<path d="" fill="#FFFFFF" transform="translate(0,0)"/>
<path d="" fill="#FFFFFF" transform="translate(0,0)"/>
<path d="" fill="#B6C2C7" transform="translate(0,0)"/>
<path d="" fill="#FFFFFF" transform="translate(0,0)"/>
<path d="" fill="#B6C2C7" transform="translate(0,0)"/>
<path d="" fill="#B6C2C7" transform="translate(0,0)"/>
<path d="" fill="#FFFFFF" transform="translate(0,0)"/>
<path d="" fill="#FFFFFF" transform="translate(0,0)"/>
<path d="" fill="#FFFFFF" transform="translate(0,0)"/>
<path d="" fill="#FFFFFF" transform="translate(0,0)"/>
<path d="" fill="#FEFFFF" transform="translate(0,0)"/>
<path d="" fill="#FEFFFF" transform="translate(0,0)"/>
<path d="" fill="#B6C2C7" transform="translate(0,0)"/>
<path d="" fill="#FFFFFF" transform="translate(0,0)"/>
<path d="" fill="#FFFFFF" transform="translate(0,0)"/>
<path d="" fill="#FFFFFF" transform="translate(0,0)"/>
<path d="" fill="#B6C2C7" transform="translate(0,0)"/>
<path d="" fill="#B6C2C7" transform="translate(0,0)"/>
<path d="" fill="#FFFFFF" transform="translate(0,0)"/>
<path d="" fill="#FFFFFF" transform="translate(0,0)"/>
<path d="" fill="#FFFFFF" transform="translate(0,0)"/>
<path d="" fill="#FFFFFF" transform="translate(0,0)"/>
<path d="" fill="#FFFFFF" transform="translate(0,0)"/>
<path d="" fill="#FEFFFF" transform="translate(0,0)"/>
<path d="" fill="#B6C2C7" transform="translate(0,0)"/>
<path d="" fill="#B6C2C7" transform="translate(0,0)"/>
<path d="" fill="#FFFFFF" transform="translate(0,0)"/>
<path d="" fill="#FFFFFF" transform="translate(0,0)"/>
<path d="" fill="#FFFFFF" transform="translate(0,0)"/>
<path d="" fill="#FFFFFF" transform="translate(0,0)"/>
<path d="" fill="#D9CECE" transform="translate(0,0)"/>
<path d="" fill="#D9CECE" transform="translate(0,0)"/>
<path d="" fill="#FFFFFF" transform="translate(0,0)"/>
<path d="" fill="#FEFFFF" transform="translate(0,0)"/>
<path d="" fill="#FEFFFF" transform="translate(0,0)"/>
<path d="" fill="#FEFFFF" transform="translate(0,0)"/>
<path d="" fill="#B6C2C7" transform="translate(0,0)"/>
<path d="" fill="#FFFFFF" transform="translate(0,0)"/>
</svg>
