<?xml version="1.0" encoding="UTF-8"?>
<svg version="1.1" xmlns="http://www.w3.org/2000/svg" width="200" height="200">
<path d="M0 0 C66 0 132 0 200 0 C200 66 200 132 200 200 C134 200 68 200 0 200 C0 134 0 68 0 0 Z " fill="#FC0420" transform="translate(0,0)"/>
<path d="M0 0 C0.33 0 0.66 0 1 0 C1 30.36 1 60.72 1 92 C-29.36 92 -59.72 92 -91 92 C-91 91.67 -91 91.34 -91 91 C-89.94683594 90.84144531 -88.89367187 90.68289062 -87.80859375 90.51953125 C-60.56243116 86.20544946 -36.07944063 73.88634435 -19.26953125 51.4609375 C-8.15111759 35.86531029 -2.50527688 18.88782276 0 0 Z " fill="#FEFCFC" transform="translate(199,108)"/>
<path d="M0 0 C0.33 0 0.66 0 1 0 C1.21914063 1.12535156 1.43828125 2.25070313 1.6640625 3.41015625 C7.02261546 29.81231379 19.60301086 53.43178191 42.1328125 69.19140625 C57.49571729 78.94592532 73.89055913 85.07961459 92 87 C92 87.33 92 87.66 92 88 C61.64 88 31.28 88 0 88 C0 58.96 0 29.92 0 0 Z " fill="#FEFCFC" transform="translate(0,112)"/>
<path d="M0 0 C29.04 0 58.08 0 88 0 C88 30.36 88 60.72 88 92 C87.67 92 87.34 92 87 92 C86.84144531 90.94683594 86.68289062 89.89367187 86.51953125 88.80859375 C82.18206904 61.40095431 70.31412403 36.77753112 47.5625 20.0625 C33.13123738 9.80886154 17.51574398 3.66772854 0 1 C0 0.67 0 0.34 0 0 Z " fill="#FEFCFC" transform="translate(112,0)"/>
<path d="M0 0 C4.36998436 3.87526915 6.80184777 7.3744829 7.25 13.3125 C7.08732087 24.33401123 3.86084359 35.1535797 -2.1875 44.3125 C-8.69494408 50.53072435 -15.36915097 51.5865153 -24.17797852 51.47265625 C-29.54840721 51.23846763 -33.84638624 50.51796839 -38 47 C-42.19434224 42.37546881 -42.81903746 38.02226505 -43 32 C-42.72714479 28.95108222 -42.143776 26.03853421 -41.4375 23.0625 C-41.16123779 21.8873584 -41.16123779 21.8873584 -40.87939453 20.68847656 C-38.66554552 11.90948286 -35.79126171 5.42049592 -27.9375 0.4375 C-19.42234446 -4.31107805 -8.67289184 -4.67001868 0 0 Z " fill="#FDF7F8" transform="translate(93,75)"/>
<path d="M0 0 C28.71 0 57.42 0 87 0 C87 0.33 87 0.66 87 1 C85.87464844 1.21914063 84.74929687 1.43828125 83.58984375 1.6640625 C62.42157355 5.95850223 45.60707564 13.85758336 30 29 C29.31550781 29.61101563 28.63101562 30.22203125 27.92578125 30.8515625 C12.51988602 45.07704532 4.15189577 66.69808312 1 87 C0.67 87 0.34 87 0 87 C0 58.29 0 29.58 0 0 Z " fill="#FEFCFC" transform="translate(0,0)"/>
<path d="M0 0 C1.26392578 -0.02900391 2.52785156 -0.05800781 3.83007812 -0.08789062 C11.90322356 -0.14275256 17.80762897 0.2316908 24.08032227 5.76049805 C26.67149379 8.72363483 26.84077253 12.17236543 26.77734375 15.9921875 C25.88073154 22.11388464 22.84189412 27.67123843 17.875 31.375 C13.73982456 33.70573525 10.80591819 34.44370299 6.109375 34.41015625 C5.31015625 34.40693359 4.5109375 34.40371094 3.6875 34.40039062 C2.8625 34.39201172 2.0375 34.38363281 1.1875 34.375 C0.34703125 34.37048828 -0.4934375 34.36597656 -1.359375 34.36132812 C-3.42711401 34.34957961 -5.49481624 34.33164522 -7.5625 34.3125 C-7.68625 35.611875 -7.81 36.91125 -7.9375 38.25 C-8.46778422 42.96280768 -9.02422836 47.80827977 -10.5625 52.3125 C-13.20708379 53.63479189 -15.24011301 53.40927194 -18.1875 53.375 C-19.19039063 53.36597656 -20.19328125 53.35695312 -21.2265625 53.34765625 C-21.99742188 53.33605469 -22.76828125 53.32445312 -23.5625 53.3125 C-24.46783914 49.69325601 -24.5579999 47.08541811 -23.77392578 43.44628906 C-23.57687042 42.50891907 -23.37981506 41.57154907 -23.17678833 40.60577393 C-22.95602631 39.60664978 -22.73526428 38.60752563 -22.5078125 37.578125 C-22.17630692 36.02747345 -22.17630692 36.02747345 -21.83810425 34.44549561 C-21.37017446 32.26588619 -20.89749906 30.08729091 -20.42041016 27.90966797 C-19.68762542 24.56307277 -18.96954696 21.21358001 -18.25390625 17.86328125 C-17.7977294 15.74721146 -17.34072682 13.63131948 -16.8828125 11.515625 C-16.66609894 10.50840393 -16.44938538 9.50118286 -16.22610474 8.46343994 C-16.02274506 7.53867859 -15.81938538 6.61391724 -15.60986328 5.66113281 C-15.3421965 4.43466034 -15.3421965 4.43466034 -15.06912231 3.18341064 C-13.62727246 -2.14121121 -4.46501071 0.03343742 0 0 Z " fill="#FCF7F8" transform="translate(126.5625,72.6875)"/>
<path d="M0 0 C2.375 1.5625 2.375 1.5625 4 4 C4.34211511 9.29620508 3.60169945 14.01536212 2.375 19.125 C2.23449219 19.81464844 2.09398438 20.50429687 1.94921875 21.21484375 C0.65471263 26.63105737 -1.31684881 28.95740612 -6 32 C-8.44921875 32.62890625 -8.44921875 32.62890625 -10.6875 32.5625 C-11.80705078 32.56443359 -11.80705078 32.56443359 -12.94921875 32.56640625 C-15 32 -15 32 -16.7734375 30.2421875 C-19.87997857 24.56335127 -16.8407653 16.9573526 -15.1875 11.125 C-13.87501895 6.67863562 -12.61920312 3.9642997 -9 1 C-5.68377419 -0.1054086 -3.47482175 -0.35457365 0 0 Z " fill="#F70924" transform="translate(82,83)"/>
<path d="M0 0 C1.26843946 3.80531837 0.43420701 6.54917557 -0.43359375 10.3359375 C-0.59038101 11.05230377 -0.74716827 11.76867004 -0.90870667 12.50674438 C-1.41088419 14.79787576 -1.92331664 17.08653547 -2.4375 19.375 C-2.94720108 21.65649617 -3.45452129 23.93842214 -3.95558167 26.22183228 C-4.26748866 27.64208588 -4.58442916 29.06124612 -4.90708923 30.47909546 C-5.6937619 34.04900293 -6.17681485 37.34288687 -6 41 C-6.66 41 -7.32 41 -8 41 C-7.98839844 40.36191406 -7.97679688 39.72382812 -7.96484375 39.06640625 C-7.95582031 38.24011719 -7.94679688 37.41382813 -7.9375 36.5625 C-7.92589844 35.73878906 -7.91429688 34.91507813 -7.90234375 34.06640625 C-7.76732652 32.00836062 -7.76732652 32.00836062 -9 31 C-9.12375 31.639375 -9.2475 32.27875 -9.375 32.9375 C-9.58125 33.618125 -9.7875 34.29875 -10 35 C-13.06890187 36.53445094 -15.70094266 35.54984289 -19 35 C-18.67386719 34.40574219 -18.34773438 33.81148437 -18.01171875 33.19921875 C-12.55966907 22.85801537 -10.55653596 12.51836607 -9 1 C-6 4.625 -6 4.625 -6 8 C-3.33264727 5.51047079 -1.44253657 3.36591866 0 0 Z " fill="#F50A25" transform="translate(109,85)"/>
<path d="M0 0 C11.25 -0.40178571 11.25 -0.40178571 15 3 C14.77871438 6.83561748 14.5068672 9.31835101 12.1875 12.4375 C7.1521613 14.90580328 2.561976 14.24448246 -3 14 C-2.01 9.38 -1.02 4.76 0 0 Z " fill="#F1112A" transform="translate(124,83)"/>
<path d="M0 0 C1.15172095 3.45516285 0.79718066 4.82220244 0.00390625 8.32421875 C-0.22490234 9.35224609 -0.45371094 10.38027344 -0.68945312 11.43945312 C-0.93630859 12.51130859 -1.18316406 13.58316406 -1.4375 14.6875 C-1.68048828 15.77095703 -1.92347656 16.85441406 -2.17382812 17.97070312 C-2.77551699 20.64880847 -3.38450297 23.32504042 -4 26 C-4.33 26 -4.66 26 -5 26 C-4.90460938 25.24074219 -4.80921875 24.48148438 -4.7109375 23.69921875 C-4.60007812 22.70535156 -4.48921875 21.71148437 -4.375 20.6875 C-4.25898437 19.70136719 -4.14296875 18.71523437 -4.0234375 17.69921875 C-3.74523005 14.77342584 -3.74523005 14.77342584 -6 12 C-5.71176433 8.15685776 -4.77448438 6.55252563 -2 4 C-0.82425289 1.90010348 -0.82425289 1.90010348 0 0 Z " fill="#E9112A" transform="translate(109,85)"/>
<path d="M0 0 C0 0.99 0 1.98 0 3 C0.66 3.33 1.32 3.66 2 4 C-4.93 4 -11.86 4 -19 4 C-19 3.67 -19 3.34 -19 3 C-16.20869212 2.49792321 -13.41699129 1.99824925 -10.625 1.5 C-9.8309375 1.35691406 -9.036875 1.21382812 -8.21875 1.06640625 C-2.2265625 0 -2.2265625 0 0 0 Z " fill="#FDE2E6" transform="translate(127,196)"/>
<path d="M0 0 C-2.55986879 0.84226 -5.12239015 1.67398551 -7.6875 2.5 C-8.7693457 2.85771484 -8.7693457 2.85771484 -9.87304688 3.22265625 C-13.69407657 4.44398994 -16.93442056 5.32075577 -21 5 C-17.91190305 3.23537317 -16.76687864 3 -13 3 C-13.33 2.01 -13.66 1.02 -14 0 C-12.2300132 -0.19532961 -10.45895721 -0.38098882 -8.6875 -0.5625 C-7.70136719 -0.66691406 -6.71523437 -0.77132812 -5.69921875 -0.87890625 C-3 -1 -3 -1 0 0 Z " fill="#E31831" transform="translate(137,193)"/>
<path d="M0 0 C0.33 0 0.66 0 1 0 C1.99 5.61 2.98 11.22 4 17 C2.68 16.67 1.36 16.34 0 16 C0 10.72 0 5.44 0 0 Z " fill="#FCE5E9" transform="translate(0,112)"/>
<path d="M0 0 C0.33 0.66 0.66 1.32 1 2 C1.66 2 2.32 2 3 2 C3.85697694 4.57093082 4.48800637 7.04482928 5.0625 9.6875 C5.23910156 10.49574219 5.41570313 11.30398437 5.59765625 12.13671875 C5.73042969 12.75160156 5.86320313 13.36648437 6 14 C3.04948346 10.54077371 0.74144483 7.2161296 -1 3 C-0.67 2.01 -0.34 1.02 0 0 Z M6 5 C6.33 5.66 6.66 6.32 7 7 C6.34 6.67 5.68 6.34 5 6 C5.33 5.67 5.66 5.34 6 5 Z " fill="#E6182F" transform="translate(9,138)"/>
<path d="M0 0 C0.2396943 5.63281599 -0.61470179 10.54538831 -2 16 C-2.33 16 -2.66 16 -3 16 C-2.98839844 15.39671875 -2.97679688 14.7934375 -2.96484375 14.171875 C-2.95582031 13.37265625 -2.94679688 12.5734375 -2.9375 11.75 C-2.92589844 10.96109375 -2.91429688 10.1721875 -2.90234375 9.359375 C-2.91315328 7.00271237 -2.91315328 7.00271237 -3.58984375 4.8125 C-3.72519531 4.214375 -3.86054687 3.61625 -4 3 C-1.64285714 0 -1.64285714 0 0 0 Z " fill="#E5142E" transform="translate(86,87)"/>
<path d="M0 0 C5.61 0.66 11.22 1.32 17 2 C17 2.33 17 2.66 17 3 C11.39 3 5.78 3 0 3 C0 2.01 0 1.02 0 0 Z " fill="#FDE2E5" transform="translate(75,197)"/>
<path d="M0 0 C3 4 3 4 2.9609375 6.47265625 C2.76757812 7.32730469 2.57421875 8.18195313 2.375 9.0625 C2.10816406 10.34833984 2.10816406 10.34833984 1.8359375 11.66015625 C1 14 1 14 -2 17 C-1.34 11.39 -0.68 5.78 0 0 Z " fill="#E51731" transform="translate(100,86)"/>
<path d="M0 0 C0.99 0 1.98 0 3 0 C3 5.28 3 10.56 3 16 C1.68 16 0.36 16 -1 16 C-0.83628906 15.29488281 -0.67257813 14.58976562 -0.50390625 13.86328125 C0.01699824 10.90341312 0.09866732 8.18938727 0.0625 5.1875 C0.05347656 4.21167969 0.04445312 3.23585938 0.03515625 2.23046875 C0.02355469 1.49441406 0.01195312 0.75835937 0 0 Z " fill="#E8132E" transform="translate(152,80)"/>
<path d="M0 0 C-3.625 3 -3.625 3 -7 3 C-7.33 3.99 -7.66 4.98 -8 6 C-9.98 6.33 -11.96 6.66 -14 7 C-10.41093986 2.98025264 -5.55416198 -1.85138733 0 0 Z " fill="#E81A34" transform="translate(54,13)"/>
<path d="M0 0 C6.75 1.75 6.75 1.75 9 4 C9 4.99 9 5.98 9 7 C9.66 7 10.32 7 11 7 C10.67 7.66 10.34 8.32 10 9 C8.33043913 7.69118353 6.66441696 6.37785174 5 5.0625 C4.071875 4.33160156 3.14375 3.60070312 2.1875 2.84765625 C1.465625 2.23792969 0.74375 1.62820312 0 1 C0 0.67 0 0.34 0 0 Z " fill="#E51A33" transform="translate(31,172)"/>
<path d="M0 0 C0 5.61 0 11.22 0 17 C-0.33 17 -0.66 17 -1 17 C-1.66 11.72 -2.32 6.44 -3 1 C-1 0 -1 0 0 0 Z " fill="#FDE0E5" transform="translate(200,75)"/>
<path d="M0 0 C0.72159424 1.64363134 1.39351421 3.31050386 2 5 C-1.91211733 3.84414715 -4.8745041 2.64465038 -8 0 C-2.25 -1.125 -2.25 -1.125 0 0 Z " fill="#EA0F29" transform="translate(60,187)"/>
<path d="M0 0 C-0.33 0.66 -0.66 1.32 -1 2 C-1.66 2 -2.32 2 -3 2 C-2.67 2.99 -2.34 3.98 -2 5 C-4.31 4.34 -6.62 3.68 -9 3 C-8 1 -8 1 -5.625 -0.1875 C-3 -1 -3 -1 0 0 Z " fill="#EB122B" transform="translate(62,9)"/>
<path d="M0 0 C4.95 0 9.9 0 15 0 C14.67 0.99 14.34 1.98 14 3 C9.38 2.34 4.76 1.68 0 1 C0 0.67 0 0.34 0 0 Z " fill="#FBE4E7" transform="translate(112,0)"/>
<path d="M0 0 C0.99 0 1.98 0 3 0 C2.34 4.62 1.68 9.24 1 14 C0.67 14 0.34 14 0 14 C0 9.38 0 4.76 0 0 Z " fill="#FEEBEE" transform="translate(0,73)"/>
<path d="M0 0 C0.99 0.66 1.98 1.32 3 2 C0.03 4.475 0.03 4.475 -3 7 C-4 4 -4 4 -3 1 C-2.01 0.67 -1.02 0.34 0 0 Z " fill="#FCE0E2" transform="translate(29,25)"/>
<path d="M0 0 C2.375 0.25 2.375 0.25 5 1 C6.3125 3.0625 6.3125 3.0625 7 5 C6.34 5.66 5.68 6.32 5 7 C3.35 4.69 1.7 2.38 0 0 Z " fill="#E5142D" transform="translate(21,161)"/>
<path d="M0 0 C0.66 0.33 1.32 0.66 2 1 C2 1.99 2 2.98 2 4 C-0.31 4.66 -2.62 5.32 -5 6 C-3.35 4.02 -1.7 2.04 0 0 Z " fill="#E91731" transform="translate(37,21)"/>
<path d="M0 0 C1.39195915 4.17587745 -0.17676781 6.13474776 -2 10 C-2.66 9.01 -3.32 8.02 -4 7 C-3.125 4.3125 -3.125 4.3125 -2 2 C-1.34 2 -0.68 2 0 2 C0 1.34 0 0.68 0 0 Z " fill="#E8142D" transform="translate(192,134)"/>
<path d="M0 0 C0 0.99 0 1.98 0 3 C0.66 3.33 1.32 3.66 2 4 C-0.31 4 -2.62 4 -5 4 C-5.33 3.01 -5.66 2.02 -6 1 C-3.92446352 0.4465236 -2.15634036 0 0 0 Z " fill="#FDEFF0" transform="translate(127,196)"/>
<path d="M0 0 C0.99 0.33 1.98 0.66 3 1 C1.37660195 2.70884005 -0.29319053 4.37446717 -2 6 C-2.66 6 -3.32 6 -4 6 C-3.6875 4.125 -3.6875 4.125 -3 2 C-2.01 1.34 -1.02 0.68 0 0 Z " fill="#E7142E" transform="translate(165,172)"/>
<path d="M0 0 C0.33 0.66 0.66 1.32 1 2 C0.0625 4.625 0.0625 4.625 -1 7 C-2.32 6.34 -3.64 5.68 -5 5 C-3.35 3.35 -1.7 1.7 0 0 Z " fill="#E71832" transform="translate(26,32)"/>
<path d="M0 0 C1.65 0 3.3 0 5 0 C3.35 1.98 1.7 3.96 0 6 C-0.66 5.34 -1.32 4.68 -2 4 C-1.34 2.68 -0.68 1.36 0 0 Z " fill="#EC152D" transform="translate(58,77)"/>
<path d="M0 0 C0.33 0 0.66 0 1 0 C1.25 3.25 1.25 3.25 1 7 C-0.32 8.32 -1.64 9.64 -3 11 C-2.01 7.37 -1.02 3.74 0 0 Z " fill="#E0263E" transform="translate(6,63)"/>
<path d="M0 0 C2.50298434 2.93828597 3.46930939 5.17902761 4 9 C3.34 8.67 2.68 8.34 2 8 C2 7.34 2 6.68 2 6 C1.34 6 0.68 6 0 6 C-1.125 2.25 -1.125 2.25 0 0 Z " fill="#E51730" transform="translate(190,58)"/>
<path d="M0 0 C5.75 1.75 5.75 1.75 8 4 C5.6875 4.6875 5.6875 4.6875 3 5 C1.1875 3.6875 1.1875 3.6875 0 2 C0 1.34 0 0.68 0 0 Z " fill="#E51E35" transform="translate(139,8)"/>
<path d="M0 0 C0.66 0.33 1.32 0.66 2 1 C1.071875 2.1446875 1.071875 2.1446875 0.125 3.3125 C-2.05597052 5.99625809 -2.05597052 5.99625809 -4 9 C-3.67 6.36 -3.34 3.72 -3 1 C-2.01 0.67 -1.02 0.34 0 0 Z " fill="#FAE4E1" transform="translate(71,84)"/>
<path d="M0 0 C0.66 0.99 1.32 1.98 2 3 C1 6 1 6 -1.0625 7.1875 C-1.701875 7.455625 -2.34125 7.72375 -3 8 C-1.125 2.25 -1.125 2.25 0 0 Z " fill="#E80E2A" transform="translate(12,51)"/>
</svg>
