<?xml version="1.0" encoding="UTF-8"?>
<svg version="1.1" xmlns="http://www.w3.org/2000/svg" width="250" height="250">
<path d="M0 0 C26.60843764 20.85815782 44.99688664 48.54034495 50.40454102 82.30883789 C51.13595607 88.36632018 51.15165382 94.405159 51.125 100.5 C51.12317719 101.16147034 51.12135437 101.82294067 51.11947632 102.50445557 C51.07404183 112.29788085 50.59375676 121.25589947 47.8125 130.6875 C47.4680267 131.98027624 47.12431158 133.27325467 46.78125 134.56640625 C41.25899721 154.45276157 30.4847148 171.41906325 16.8125 186.6875 C15.84376953 187.78384766 15.84376953 187.78384766 14.85546875 188.90234375 C-0.0689662 204.80223197 -20.42475973 214.94532707 -41.1875 220.6875 C-42.38761719 221.0278125 -43.58773437 221.368125 -44.82421875 221.71875 C-76.51218006 229.11831718 -110.71115127 222.62465654 -138.1875 205.6875 C-163.806226 188.58739332 -182.02173507 164.55615408 -190.9375 135.0625 C-191.13641846 134.40644775 -191.33533691 133.75039551 -191.5402832 133.07446289 C-200.44741976 101.95107067 -195.4619076 67.71488212 -180.0625 39.5 C-164.05501969 11.49919051 -137.03719182 -9.8955824 -105.9375 -18.53125 C-69.70029531 -28.05544719 -30.47552861 -22.19284268 0 0 Z " fill="#8837D8" transform="translate(197.1875,24.3125)"/>
<path d="M0 0 C4.12869426 1.89411905 7.94758113 4.24622021 11.8125 6.625 C12.84181641 7.24246094 13.87113281 7.85992187 14.93164062 8.49609375 C16.97558784 9.72427203 19.01491179 10.96018035 21.04931641 12.20410156 C24.6559218 14.39921899 28.29818961 16.53141665 31.94799805 18.65380859 C33.98808864 19.99218569 35.44697197 21.12107322 37 23 C37.39440918 25.04222107 37.39440918 25.04222107 37.41992188 27.40795898 C37.43583374 28.29575546 37.45174561 29.18355194 37.46813965 30.09825134 C37.46834106 31.05453934 37.46854248 32.01082733 37.46875 32.99609375 C37.47636353 33.98118423 37.48397705 34.96627472 37.49182129 35.98121643 C37.50262887 38.06500717 37.50547273 40.1488521 37.50097656 42.23266602 C37.50000463 45.4223053 37.541611 48.60953659 37.5859375 51.79882812 C37.59114469 53.82291164 37.59383269 55.84700353 37.59375 57.87109375 C37.61014526 58.82535751 37.62654053 59.77962128 37.64343262 60.76280212 C37.57452597 67.36027822 37.57452597 67.36027822 34.83349609 70.41235352 C33.43091553 71.19823853 33.43091553 71.19823853 32 72 C31.06172363 72.58330078 30.12344727 73.16660156 29.15673828 73.76757812 C28.13821777 74.34958984 27.11969727 74.93160156 26.0703125 75.53125 C24.94496094 76.17707031 23.81960937 76.82289063 22.66015625 77.48828125 C21.4818267 78.15895233 20.30344088 78.82952455 19.125 79.5 C17.95420439 80.17018403 16.78362956 80.84075391 15.61328125 81.51171875 C13.38225149 82.78914265 11.14832033 84.0615163 8.91113281 85.328125 C7.20116216 86.31016786 5.50191496 87.31217217 3.83105469 88.359375 C0.0282374 90.73430652 -2.52496682 91.63678671 -7 91 C-11.9656891 89.43337599 -16.93670181 87.37740872 -20 83 C-21.625761 76.81079387 -20.73968174 70.27148964 -20 64 C-15.3554027 65.70329597 -11.5180752 68.1475838 -7.40234375 70.85546875 C-3.9826315 72.48469751 -2.12590445 71.36678159 1.3659668 70.22924805 C8.26082803 67.64685176 15.23539475 64.79925078 20 59 C22.90353181 50.0560144 21.93666857 40.23219944 21 31 C19.64273804 30.57980591 19.64273804 30.57980591 18.25805664 30.15112305 C15.47437351 29.16760368 13.33672731 28.15813891 10.87109375 26.58203125 C9.78344727 25.90817383 9.78344727 25.90817383 8.67382812 25.22070312 C7.17484687 24.27680314 5.68007152 23.32619275 4.18945312 22.36914062 C3.46564453 21.92376953 2.74183594 21.47839844 1.99609375 21.01953125 C1.34825928 20.60807861 0.7004248 20.19662598 0.03295898 19.77270508 C-2.70660943 18.73142562 -4.22005172 19.15413954 -7 20 C-9.19986976 20.99135237 -9.19986976 20.99135237 -11.3203125 22.25 C-12.10277344 22.6934375 -12.88523437 23.136875 -13.69140625 23.59375 C-14.49449219 24.0578125 -15.29757813 24.521875 -16.125 25 C-17.73050152 25.91888799 -19.33722314 26.83564837 -20.9453125 27.75 C-21.65187988 28.15734375 -22.35844727 28.5646875 -23.08642578 28.984375 C-25 30 -25 30 -28 31 C-27.99111755 31.91819519 -27.98223511 32.83639038 -27.9730835 33.78240967 C-27.89294579 42.43420505 -27.83203974 51.08587584 -27.79275131 59.737957 C-27.77187362 64.18614277 -27.74355298 68.63402194 -27.69824219 73.08203125 C-27.65479043 77.37439234 -27.63086426 81.66645848 -27.62049103 85.95902252 C-27.6130984 87.59692275 -27.59866225 89.23480677 -27.57707977 90.87258148 C-27.54805353 93.16638609 -27.54404349 95.45897106 -27.54589844 97.75292969 C-27.53701599 99.05864929 -27.52813354 100.3643689 -27.51898193 101.70965576 C-28.08391916 105.57403859 -28.95620358 106.6500879 -32 109 C-34.07613147 110.32195688 -36.19474839 111.57831835 -38.33984375 112.78515625 C-38.94381485 113.12751816 -39.54778595 113.46988007 -40.1700592 113.82261658 C-42.08912919 114.90875489 -44.01310382 115.98583206 -45.9375 117.0625 C-47.85712165 118.14477569 -49.77570929 119.22886774 -51.69422913 120.31309509 C-53.43638058 121.29631906 -55.18089576 122.27535132 -56.92553711 123.25415039 C-58.8761077 124.36179196 -60.80752789 125.50445031 -62.70996094 126.69287109 C-66.15549586 128.65954422 -68.05314757 128.57516945 -72 128 C-75.90434208 126.26902208 -79.52528953 124.1274965 -83.1875 121.9375 C-84.20674561 121.34275879 -85.22599121 120.74801758 -86.27612305 120.13525391 C-88.28623099 118.96091334 -90.29294717 117.78074405 -92.29589844 116.59423828 C-94.55132494 115.26452222 -96.8170047 113.96226416 -99.1015625 112.68359375 C-106.74943182 108.37585227 -106.74943182 108.37585227 -109 105 C-109.29434204 102.97123718 -109.29434204 102.97123718 -109.35400391 100.6237793 C-109.39250961 99.30176765 -109.39250961 99.30176765 -109.43179321 97.95304871 C-109.44656708 97.00303482 -109.46134094 96.05302094 -109.4765625 95.07421875 C-109.49270599 94.09387161 -109.50884949 93.11352448 -109.52548218 92.10346985 C-109.55314488 90.02811744 -109.57459777 87.95267439 -109.59033203 85.87719727 C-109.6247697 82.70868961 -109.71253083 79.54435447 -109.80078125 76.37695312 C-109.82103576 74.35940566 -109.83806779 72.34182275 -109.8515625 70.32421875 C-109.88657867 69.38027756 -109.92159485 68.43633636 -109.95767212 67.46379089 C-109.91554041 61.04950956 -109.91554041 61.04950956 -107.40287781 58.16917419 C-105.34298407 56.58230585 -103.26509335 55.27430147 -101 54 C-100.408703 53.6336293 -99.81740601 53.26725861 -99.20819092 52.88978577 C-97.5400888 51.86764286 -95.83412859 50.9081544 -94.12890625 49.94921875 C-93.52110825 49.60494339 -92.91331024 49.26066803 -92.28709412 48.90596008 C-90.38180279 47.82788736 -88.47242473 46.75733869 -86.5625 45.6875 C-84.62840594 44.59841484 -82.69521619 43.50776071 -80.76292419 42.41548157 C-79.02926833 41.43634178 -77.29314033 40.46158298 -75.55688477 39.48706055 C-73.1448396 38.23009007 -73.1448396 38.23009007 -72 37 C-66.75286964 36.43274266 -63.12782503 38.06673644 -58.625 40.5 C-55.345625 42.2325 -55.345625 42.2325 -52 44 C-52 50.6 -52 57.2 -52 64 C-56.69953873 62.12018451 -60.40539553 59.9027675 -64.59765625 57.14453125 C-68.0173685 55.51530249 -69.87409555 56.63321841 -73.3659668 57.77075195 C-80.26082803 60.35314824 -87.23539475 63.20074922 -92 69 C-94.90353181 77.9439856 -93.93666857 87.76780056 -93 97 C-92.26265625 97.28012939 -91.5253125 97.56025879 -90.765625 97.84887695 C-88.27231138 98.88665712 -86.06535354 100.03813595 -83.75 101.41796875 C-82.9765625 101.86720703 -82.203125 102.31644531 -81.40625 102.77929688 C-79.79695115 103.72110245 -78.19277051 104.67170665 -76.59375 105.63085938 C-75.8203125 106.07623047 -75.046875 106.52160156 -74.25 106.98046875 C-73.55390625 107.39192139 -72.8578125 107.80337402 -72.140625 108.22729492 C-69.3291897 109.24214355 -67.83588265 108.8807362 -65 108 C-62.68261779 106.89791408 -62.68261779 106.89791408 -60.42578125 105.49609375 C-59.59369141 105.00302734 -58.76160156 104.50996094 -57.90429688 104.00195312 C-57.04900391 103.48568359 -56.19371094 102.96941406 -55.3125 102.4375 C-53.60255392 101.41153235 -51.89041878 100.38920148 -50.17578125 99.37109375 C-49.42208252 98.91661865 -48.66838379 98.46214355 -47.8918457 97.99389648 C-46 97 -46 97 -44 97 C-44.0199855 96.07371796 -44.03997101 95.14743591 -44.06056213 94.19308472 C-44.24106876 85.45383156 -44.3780035 76.71520623 -44.46630955 67.97451591 C-44.51323712 63.48089821 -44.57685456 58.98882336 -44.67895508 54.49609375 C-44.77691694 50.15821371 -44.83059099 45.8218149 -44.85389519 41.48291397 C-44.87049592 39.82973022 -44.90291739 38.1766256 -44.95157051 36.52407455 C-45.31649708 23.61270811 -45.31649708 23.61270811 -42.16487122 19.75196838 C-39.8378765 18.16850953 -37.59880936 17.06856825 -35 16 C-33.88568604 15.32606201 -32.77137207 14.65212402 -31.62329102 13.95776367 C-30.59389404 13.36713135 -29.56449707 12.77649902 -28.50390625 12.16796875 C-27.36888672 11.51505859 -26.23386719 10.86214844 -25.06445312 10.18945312 C-23.89714611 9.52211671 -22.72982829 8.85479919 -21.5625 8.1875 C-20.36768267 7.50092223 -19.17302021 6.81407487 -17.97851562 6.12695312 C-5.41501526 -1.08609259 -5.41501526 -1.08609259 0 0 Z " fill="#FCFAFE" transform="translate(161,61)"/>
<path d="" fill="#0000FF" transform="translate(0,0)"/>
</svg>
