<?xml version="1.0" encoding="UTF-8"?>
<svg version="1.1" xmlns="http://www.w3.org/2000/svg" width="200" height="200">
<path d="M0 0 C15.79227608 13.91551284 25.86371947 31.66136152 31 52 C31.33837891 53.33804688 31.33837891 53.33804688 31.68359375 54.703125 C36.87362161 79.75843193 31.8726107 107.50983967 18 129 C2.4177544 151.23716299 -17.50276249 166.30843875 -44 173 C-45.33804688 173.33837891 -45.33804688 173.33837891 -46.703125 173.68359375 C-71.75843193 178.87362161 -99.50983967 173.8726107 -121 160 C-144.94279817 143.22256479 -160.88338359 120.99125091 -166.25 91.9375 C-169.94066631 64.40712425 -164.15025864 36.65089617 -147.1875 14.3125 C-130.31000734 -7.12940616 -108.04998626 -20.39416057 -81.0546875 -24.6171875 C-50.82152275 -27.91993902 -23.22443508 -19.70738005 0 0 Z " fill="#2775CA" transform="translate(167,25)"/>
<path d="M0 0 C0.9075 0.00257812 1.815 0.00515625 2.75 0.0078125 C4.11125 0.00394531 4.11125 0.00394531 5.5 0 C7.75 0.1328125 7.75 0.1328125 8.75 1.1328125 C8.82244053 3.15245449 8.83377188 5.17448374 8.8125 7.1953125 C8.80347656 8.30003906 8.79445312 9.40476562 8.78515625 10.54296875 C8.77355469 11.39761719 8.76195312 12.25226562 8.75 13.1328125 C9.39066406 13.2565625 10.03132813 13.3803125 10.69140625 13.5078125 C17.88892794 15.22406208 21.6238003 18.01548155 25.75 24.1328125 C27.29764249 26.97015706 27.87743772 28.2152609 27.4375 31.3828125 C26.75 33.1328125 26.75 33.1328125 25.75 34.1328125 C22.62926163 34.75824974 19.85135269 34.89092093 16.75 34.1328125 C15.01175591 32.22984702 14.00749876 30.40746502 12.91796875 28.078125 C11.44564878 25.62589977 10.44909878 25.0466435 7.75 24.1328125 C4.83757044 23.8168645 4.83757044 23.8168645 1.75 23.8828125 C0.71875 23.87765625 -0.3125 23.8725 -1.375 23.8671875 C-4.22659813 24.13065037 -5.857362 24.60524728 -8.25 26.1328125 C-10.34679403 28.82869053 -10.24510821 30.2257565 -10.0625 33.6953125 C-9.22871311 37.2228724 -9.00225474 38.0232618 -6.25 40.1328125 C-3.65775385 41.02743214 -3.65775385 41.02743214 -0.69921875 41.59765625 C0.39197266 41.84064453 1.48316406 42.08363281 2.60742188 42.33398438 C4.89880174 42.82231123 7.19046619 43.30930477 9.48242188 43.79492188 C18.14741813 45.72784335 23.44885438 47.67194088 28.75 55.1328125 C31.20837095 60.0495544 30.32062662 66.77435685 29.75 72.1328125 C27.40988835 78.04382117 23.47134175 82.32823321 17.75 85.1328125 C14.77431543 85.97812191 11.79927197 86.61782435 8.75 87.1328125 C8.76160156 87.98746094 8.77320313 88.84210938 8.78515625 89.72265625 C8.79417969 90.82738281 8.80320313 91.93210937 8.8125 93.0703125 C8.82410156 94.17246094 8.83570313 95.27460938 8.84765625 96.41015625 C8.75 99.1328125 8.75 99.1328125 7.75 100.1328125 C6.08570949 100.23105187 4.41718069 100.26254881 2.75 100.2578125 C1.38875 100.26167969 1.38875 100.26167969 0 100.265625 C-2.25 100.1328125 -2.25 100.1328125 -3.25 99.1328125 C-3.32244053 97.11317051 -3.33377188 95.09114126 -3.3125 93.0703125 C-3.30347656 91.96558594 -3.29445313 90.86085938 -3.28515625 89.72265625 C-3.27355469 88.86800781 -3.26195313 88.01335937 -3.25 87.1328125 C-4.24 87.0503125 -5.23 86.9678125 -6.25 86.8828125 C-12.63026226 85.9161061 -17.5319777 83.43591583 -21.6875 78.4453125 C-24.56646833 74.28332568 -25.50383496 70.17640277 -25.25 65.1328125 C-24.25 64.1328125 -24.25 64.1328125 -21.74609375 64.03515625 C-20.73675781 64.04675781 -19.72742188 64.05835938 -18.6875 64.0703125 C-17.67558594 64.07933594 -16.66367188 64.08835938 -15.62109375 64.09765625 C-14.44740234 64.11505859 -14.44740234 64.11505859 -13.25 64.1328125 C-13.03085938 64.74769531 -12.81171875 65.36257812 -12.5859375 65.99609375 C-11.08486384 69.82200099 -9.95955269 72.54743153 -6.75 75.1953125 C-0.79424392 76.79060431 5.82697129 77.55482647 11.49609375 74.796875 C14.10388902 72.87153569 15.53596383 71.25032825 16.15625 68.01171875 C16.1871875 67.24730469 16.218125 66.48289062 16.25 65.6953125 C16.3015625 64.93347656 16.353125 64.17164062 16.40625 63.38671875 C15.57684071 60.53809281 14.16263759 59.48420455 11.65332031 57.98803711 C8.05030344 56.36908276 4.24859842 55.79059336 0.375 55.1328125 C-7.2463726 53.82629148 -14.7607652 52.25027349 -20.125 46.2578125 C-23.93882276 40.64924962 -24.72238166 36.29981598 -23.84375 29.66015625 C-22.44632806 23.71191945 -19.4010002 19.61104079 -14.375 16.1953125 C-10.65481332 14.08767822 -7.49449689 13.39809356 -3.25 13.1328125 C-3.26160156 12.27816406 -3.27320312 11.42351563 -3.28515625 10.54296875 C-3.29417969 9.43824219 -3.30320312 8.33351563 -3.3125 7.1953125 C-3.32410156 6.09316406 -3.33570312 4.99101563 -3.34765625 3.85546875 C-3.21617759 0.18984382 -3.21617759 0.18984382 0 0 Z " fill="#FEFEFE" transform="translate(97.25,50.8671875)"/>
<path d="M0 0 C0.13513292 1.7687398 0.23205586 3.54043055 0.3125 5.3125 C0.37050781 6.29863281 0.42851563 7.28476562 0.48828125 8.30078125 C0 11 0 11 -2.09375 12.62109375 C-3.0528125 13.07613281 -4.011875 13.53117187 -5 14 C-6.07894531 14.59296875 -7.15789062 15.1859375 -8.26953125 15.796875 C-8.84437256 16.11188965 -9.41921387 16.4269043 -10.01147461 16.75146484 C-25.31896809 25.23833597 -35.0788182 37.02898379 -40.8125 53.75 C-44.70334738 69.60576534 -42.89358415 86.73079515 -35.35546875 101.14453125 C-33.69466855 103.88503903 -31.92863585 106.44246115 -30 109 C-29.48953125 109.70382813 -28.9790625 110.40765625 -28.453125 111.1328125 C-21.2174303 120.26698155 -10.40483631 126.18582201 0 131 C0 134.63 0 138.26 0 142 C-4.85759959 143.2143999 -7.3371643 141.97494636 -11.6875 140 C-12.40284912 139.68039307 -13.11819824 139.36078613 -13.85522461 139.03149414 C-19.56591369 136.38826831 -24.30277272 133.19670306 -29 129 C-29.6909375 128.43796875 -30.381875 127.8759375 -31.09375 127.296875 C-32.77688743 125.92097694 -34.39604988 124.46744373 -36 123 C-36 122.34 -36 121.68 -36 121 C-36.66 121 -37.32 121 -38 121 C-51.12725914 105.96772964 -57.19042951 86.17887244 -56.375 66.4765625 C-54.97936343 46.38811862 -46.33371493 28.33472245 -31.4921875 14.6953125 C-9.71657508 -3.39414609 -9.71657508 -3.39414609 0 0 Z " fill="#FDFEFE" transform="translate(81,30)"/>
<path d="M0 0 C20.60296712 6.90539008 34.78500071 19.2451351 45.0703125 38.40234375 C53.51071345 56.34310298 55.44552816 76.75112367 48.98974609 95.69482422 C41.12885738 116.71837514 27.02753808 131.56605079 6.82421875 141.15625 C3.87327008 142.39416166 1.42571168 143.32463004 -1.7421875 143.65234375 C-2.4021875 143.32234375 -3.0621875 142.99234375 -3.7421875 142.65234375 C-3.7421875 139.02234375 -3.7421875 135.39234375 -3.7421875 131.65234375 C-2.64261719 131.11867187 -1.54304688 130.585 -0.41015625 130.03515625 C16.42082307 121.65209255 28.67926499 110.90278832 35.6953125 93.02734375 C41.21151617 75.66901477 40.00349203 57.69399084 31.6171875 41.48046875 C29.94713792 38.75723476 28.18463493 36.19924511 26.2578125 33.65234375 C25.71253906 32.9253125 25.16726562 32.19828125 24.60546875 31.44921875 C17.12693102 22.22862165 6.6213815 16.99656663 -3.7421875 11.65234375 C-3.7421875 8.02234375 -3.7421875 4.39234375 -3.7421875 0.65234375 C-1.7421875 -0.34765625 -1.7421875 -0.34765625 0 0 Z " fill="#FEFEFE" transform="translate(122.7421875,29.34765625)"/>
</svg>
